<svg xmlns="http://www.w3.org/2000/svg" viewBox="0 0 841.89 1190.55"><defs><style>.cls-1{fill:#231f20;}.cls-1,.cls-2{stroke:#000;stroke-linecap:round;stroke-linejoin:round;stroke-width:0.99px;}.cls-2{fill:#fff;}</style></defs><title>Artboard 1</title><g id="Layer_2_U_00A0Image" data-name="Layer 2_U+00A0Image"><g id="SPLINE"><path class="cls-1" d="M109.78,603.23v12.18a3.9,3.9,0,0,0-.22,1.27,14,14,0,0,1-.17,2,26.12,26.12,0,0,1-.71,2.59,14.15,14.15,0,0,1-.65,1.5c-.14.31-.33.61-.5.92a.54.54,0,0,0-.07.13c-.18.42-.36.84-.53,1.26s-.41,1.12-.65,1.66c-.48,1.1-1,2.19-1.48,3.28a3.14,3.14,0,0,1-.46.77c-.69.78-1.41,1.54-2.12,2.3l-1.86,2c-.46.49-.93,1-1.4,1.47a18.6,18.6,0,0,1-3.25,3c-.49.33-.95.72-1.42,1.08-.31.24-.64.48-.93.75a18.66,18.66,0,0,1-2.06,1.5,11.8,11.8,0,0,1-1.54.8c-.25.13-.49.27-.74.39-.5.25-1,.45-1.51.71a22.78,22.78,0,0,1-3.16,1.39c-.18.07-.37.12-.55.18a16.23,16.23,0,0,1-2.43.75c-.85.15-1.68.37-2.53.51s-2,.31-3,.41a29.62,29.62,0,0,1-5.88,0c-.22,0-.43-.07-.65-.08H68.2l-.75,0-.36,0-.75.05a9.14,9.14,0,0,1-1.88.17c-.54,0-1.09,0-1.64,0a16.26,16.26,0,0,1-1.84-.13,14.34,14.34,0,0,0-2.07-.09c-.49,0-1,0-1.48,0-1.2,0-2.39,0-3.59,0-.29,0-.58,0-.87,0s-.72.08-1.08.11l-1.12.08c-.74.06-1.47.13-2.21.16-.89,0-1.77.06-2.66.07-.26,0-.53-.07-.79-.06a16.36,16.36,0,0,1-2.43-.09,10.2,10.2,0,0,0-2.14,0c-.7.06-1.4.14-2.1.18s-1.58,0-2.37.07a21.67,21.67,0,0,1-2.79-.08c-.55,0-1.09-.07-1.64-.14-.71-.08-1.41-.19-2.12-.27-.31,0-.64,0-.94-.08a3,3,0,0,0-1.12,0,3.68,3.68,0,0,1-1.55-.06,7.19,7.19,0,0,0-1.84-.23,18.82,18.82,0,0,1-2,0,2.83,2.83,0,0,0-1,.12,5.64,5.64,0,0,1-1.58.23l-1.63,0-1.53,0c-.67,0-1.33,0-2,0-.35,0-.7.05-1.05.06s-.78,0-1.16,0a8.56,8.56,0,0,1-1.6,0,10,10,0,0,0-1.23-.08H7.48a19.34,19.34,0,0,1-3.3-.5c-.58-.12-1.15-.27-1.73-.39a.63.63,0,0,0-.33,0,.46.46,0,0,1-.43-.12.6.6,0,0,0-.8,0,.7.7,0,0,1-.17,0,3.1,3.1,0,0,1-.06-.39c0-.54,0-1.07,0-1.6s0-1-.07-1.57c0-.2,0-.41,0-.61a8.58,8.58,0,0,1-.07-2,.81.81,0,0,0,0-.22c0-.54,0-1.09,0-1.63,0-1.22,0-2.43.17-3.63,0-.31.05-.61.09-.91.09-.73.23-1.46.29-2.19a7.78,7.78,0,0,0,0-2.31.45.45,0,0,1,0-.11c0-.44,0-.88,0-1.31-.09-.72-.08-1.44-.21-2.16a.88.88,0,0,1,0-.32A15.75,15.75,0,0,0,1,623.64c0-.44,0-.88.05-1.31s.07-1,.1-1.42A9.43,9.43,0,0,0,.93,619a3.27,3.27,0,0,1,0-.54c0-.38.07-.75.09-1.13,0-.71.11-1.42.11-2.13,0-1.14,0-2.28-.05-3.42,0-.53,0-1.07,0-1.6,0-.34,0-.67,0-1,0-.61,0-1.21-.07-1.82q0-.61-.06-1.23c0-.67-.15-1.33-.16-2,0-1.08,0-2.16.07-3.24v-.21c0-.61,0-1.22,0-1.82s0-.93,0-1.39c0-.3,0-.6,0-.9s0-.36,0-.55c0-.69,0-1.38,0-2.07,0-.51,0-1,0-1.52s0-1.16,0-1.74.08-1.23.14-1.85a20.21,20.21,0,0,0,.07-3.3c-.06-.74-.11-1.47-.16-2.21A9.19,9.19,0,0,1,1,581.52a10.85,10.85,0,0,0,.1-2.67c-.11-1-.22-2.07-.3-3.11-.07-.84-.1-1.67-.15-2.51,0-.12,0-.24,0-.36,0-.5-.05-1-.05-1.49s.06-.91.08-1.37,0-1.09.08-1.63a10.71,10.71,0,0,1,.13-1.27,9.49,9.49,0,0,0,.18-1.77c0-.71,0-1.42,0-2.13a11.36,11.36,0,0,0,0-2.54c-.15-1.08-.21-2.17-.29-3.26S.59,555.11.49,554a19,19,0,0,1,.27-4.13c.05-.42.06-.84.08-1.27s0-.58,0-.87.05-.68,0-1c0-.56-.09-1.11-.14-1.67-.07-.83.06-1.67-.06-2.51a.54.54,0,0,1,0-.18l.12-1.19c.1-.88,0-1.77.15-2.65a.56.56,0,0,0,0-.18c-.08-.83-.16-1.66-.26-2.49a7.73,7.73,0,0,1-.12-1.92,1.23,1.23,0,0,0,0-.33,6,6,0,0,1-.14-1c0-.62.11-1.25.19-1.87,0-.31.14-.62.19-.93A6.27,6.27,0,0,0,.8,528c0-.41-.15-.81-.21-1.22a9.26,9.26,0,0,1,0-2.17c0-.63.1-1.26.1-1.88A14.38,14.38,0,0,0,.59,521a10.49,10.49,0,0,1,.19-2.24,2.27,2.27,0,0,0-.05-.9A2.84,2.84,0,0,1,.61,517a12.29,12.29,0,0,0,.08-1.92c0-.62,0-1.26,0-1.89a11.42,11.42,0,0,1,.06-1.3,11.06,11.06,0,0,0,0-1.41c0-.35-.07-.69-.11-1A11.56,11.56,0,0,0,.45,508a5.37,5.37,0,0,1,0-1.65c0-.21.08-.41.08-.61,0-.53,0-1.06,0-1.59a2.18,2.18,0,0,1,0-.27l.75-.06h.21l1.38-.06.69-.07c.53-.06,1-.16,1.57-.19s.92,0,1.38.06a4.17,4.17,0,0,0,.79,0c.55-.1,1.08-.23,1.63-.34a3.25,3.25,0,0,1,1.58,0c.16,0,.32.1.49.13l1.29.13c.26,0,.53,0,.79,0l1.13,0,.94,0a9.1,9.1,0,0,0,2,0,7,7,0,0,1,.79,0,6.43,6.43,0,0,0,.88,0,7.64,7.64,0,0,1,1.44-.13,3.79,3.79,0,0,0,.58,0l2.2-.23,1.73-.17a10.05,10.05,0,0,1,1.09-.05c.43,0,.86.07,1.29.11l.65,0c.16,0,.31,0,.46.06.47,0,.94,0,1.41.09s1.07.15,1.61.17a24.07,24.07,0,0,0,2.55,0c1.23-.07,2.47-.06,3.7-.08h3.12c.57,0,1.14,0,1.71,0a7.77,7.77,0,0,0,2-.27,9.13,9.13,0,0,1,1.26-.19c.37,0,.75,0,1.12,0s1,0,1.56,0a2.37,2.37,0,0,0,1-.11.14.14,0,0,1,.11,0c.44,0,.89.05,1.33.09.17,0,.33.06.5.07a14,14,0,0,0,1.59.13c.4,0,.8,0,1.2.06l1.7.08,1.56.05,2.22.05c.92,0,1.84,0,2.76.08.69,0,1.37.18,2.06.24a12.27,12.27,0,0,0,2.64.2c.63-.07,1.28.09,1.92,0a1.06,1.06,0,0,1,.25,0l1.77.2c.57.07,1.13.15,1.7.21a3.68,3.68,0,0,0,1,.06,1.69,1.69,0,0,1,1,.15,2.33,2.33,0,0,0,.33.14A12.6,12.6,0,0,1,77,505l2.65,1,.38.13,1,.36c.45.17.88.4,1.34.54a13.34,13.34,0,0,1,1.41.56l1.06.46a4.24,4.24,0,0,1,1.28.58,12.39,12.39,0,0,0,2.13,1.2c.24.15.51.27.75.42s.46.35.71.5a3,3,0,0,1,.75.68,2.21,2.21,0,0,0,.4.41c.4.33.83.63,1.22,1s.46.49.71.71.33.24.49.37L94.47,515a13.43,13.43,0,0,1,1,1c.39.45.74.94,1.11,1.42a10.22,10.22,0,0,1,.63.84c.54.84,1.08,1.69,1.61,2.55a3.11,3.11,0,0,1,.25.52c.11.29.21.59.31.88s.09.33.14.49a5.51,5.51,0,0,0,.3,1,12.55,12.55,0,0,0,1,1.59,15.67,15.67,0,0,1,1.1,1.95,16.76,16.76,0,0,1,.8,1.91,7.83,7.83,0,0,1,.51,1.32c.13.61.33,1.22.44,1.84.15.87.22,1.75.39,2.62a18.53,18.53,0,0,1,.26,3.07c0,.54,0,1.09-.07,1.63,0,.22,0,.44,0,.65-.07.54-.12,1.09-.22,1.62s-.22,1-.34,1.48a5.51,5.51,0,0,0-.24,1,7.43,7.43,0,0,1-.3,1.49,4.69,4.69,0,0,0-.21.88,5.71,5.71,0,0,1-.88,2.32,11.53,11.53,0,0,0-.69,1.24,4.27,4.27,0,0,0-.57,1.81.45.45,0,0,1,0,.11,15.36,15.36,0,0,1-.53,2,11.14,11.14,0,0,1-1.47,3.07c-.51.66-1.06,1.3-1.6,1.93s-1.06,1.22-1.61,1.83c-.33.36-.68.72-1,1.07s-.73.71-1.08,1.08-.47.62-.74.89c-.49.51-1,1-1.51,1.48a27.55,27.55,0,0,1-4.43,3.47,18.12,18.12,0,0,1-2.45,1.34l-1.35.61-.23.13a2.53,2.53,0,0,1,1.17.43.75.75,0,0,0,.24.09,13.56,13.56,0,0,1,2.13.69c.38.18.76.36,1.13.56s.83.5,1.25.73c.68.38,1.37.73,2,1.11s1,.61,1.57.92c.27.16.53.33.79.5A22.67,22.67,0,0,0,95,577.27c.61.33,1.19.73,1.78,1.12s1.22.87,1.83,1.3a7.27,7.27,0,0,1,.82.61c.51.49,1,1,1.48,1.54.23.25.41.54.63.79.35.41.71.8,1.07,1.19.16.18.32.36.47.55a7.36,7.36,0,0,1,.63.84c.18.32.29.68.47,1a3.28,3.28,0,0,1,.25.58,10.32,10.32,0,0,0,.51,1.06,13.45,13.45,0,0,0,1,1.78,5.09,5.09,0,0,1,.47.86c.12.25.21.51.31.76.2.48.41,1,.6,1.44.25.64.5,1.28.74,1.92a2.74,2.74,0,0,1,.24.82,8.6,8.6,0,0,0,.27,1.82,3.9,3.9,0,0,1,.27,1.27,1,1,0,0,0,.09.35,3.34,3.34,0,0,1,.29,1.32.55.55,0,0,0,.07.24c0,.11.08.23.1.34s.08.43.1.65a6.55,6.55,0,0,1,.18,1.4A1.22,1.22,0,0,0,109.78,603.23Z"/></g><g id="SPLINE-2" data-name="SPLINE"><path class="cls-2" d="M12,577.4c0,.26,0,.46.05.67a7.23,7.23,0,0,1,.12,1c0,1-.06,2-.08,3,0,.81,0,1.63,0,2.44,0,.5,0,1,0,1.52a3.18,3.18,0,0,0,0,.61,9.06,9.06,0,0,1,.1,1.27,7.4,7.4,0,0,1-.07,1.15c-.05.69-.12,1.37-.16,2.06,0,.4,0,.8,0,1.19,0,1,0,2,0,3a6.92,6.92,0,0,0-.06.9c.11,1-.05,1.89,0,2.83s0,1.76,0,2.64c0,.23,0,.46,0,.69,0,.4-.07.79-.06,1.19a8.05,8.05,0,0,0,.15,1.76,7.81,7.81,0,0,1,.17,1.54c0,.42,0,.85,0,1.27s-.06.77-.06,1.16c0,.92,0,1.84,0,2.76,0,.22,0,.43,0,.65,0,.41.06.82.05,1.23a9.2,9.2,0,0,0,0,1.66,1.45,1.45,0,0,1,0,.36c-.05.67-.15,1.33-.16,2,0,1.44,0,2.89,0,4.33,0,.65.08,1.3.1,1.95s.05,1.35,0,2-.09,1.21-.1,1.81c0,1.26,0,2.52,0,3.78,0,1.05,0,2.09,0,3.13,0,.6,0,1.21,0,1.82,0,.27.13.39.4.39a10.14,10.14,0,0,0,1.35,0,3.59,3.59,0,0,1,1.89.23.89.89,0,0,0,.56,0,10.68,10.68,0,0,1,1.26-.21c.68-.08,1.37-.11,2.06-.18.33,0,.67-.1,1-.12.56-.05,1.11-.06,1.67-.1.75-.06,1.49-.16,2.24-.2s1.6,0,2.4,0a24.87,24.87,0,0,1,2.73,0c1,.07,2,.05,3,.1.7,0,1.4.14,2.09.2a11.57,11.57,0,0,1,1.56.11,13.14,13.14,0,0,0,1.77.11c.89.07,1.79.06,2.69.08.72,0,1.45.06,2.18.07s1.33,0,2,0c.33,0,.66,0,1,0s.87,0,1.31,0c.84,0,1.69,0,2.54.06s1.54,0,2.32,0l2.61,0c.7,0,1.4-.06,2.11-.1,1-.06,2-.14,3-.19.39,0,.78,0,1.16,0s.94-.09,1.41-.14l2.68-.23a4.86,4.86,0,0,1,.54,0c.26,0,.52,0,.77,0,.54-.07,1.09-.12,1.62-.24,1-.22,2-.1,3-.26.79-.13,1.59-.17,2.38-.26.58-.07,1.15-.17,1.73-.21a18.62,18.62,0,0,0,3-.44l1.56-.36c.25-.06.5-.12.74-.16l.57-.1a1.12,1.12,0,0,0,.38-.06,4.3,4.3,0,0,1,1.09-.39c.62-.16,1.25-.28,1.86-.48a9,9,0,0,0,2.34-1.08c.49-.32,1.06-.53,1.57-.81s1-.67,1.56-.93a10.71,10.71,0,0,0,2-1.5c.38-.31.69-.69,1-1a2.11,2.11,0,0,0,.53-.73c.2-.38.4-.77.62-1.15.38-.67.78-1.33,1.17-2l.61-1.07c.15-.25.29-.51.43-.76a6.34,6.34,0,0,1,.42-.67,4.92,4.92,0,0,0,.77-1.08,8.33,8.33,0,0,1,.49-.93c.08-.16.16-.32.23-.49.24-.61.5-1.23.73-1.85a10.63,10.63,0,0,0,.36-1.22,7.93,7.93,0,0,0,.08-1c.07-.63.14-1.25.22-1.88a1.87,1.87,0,0,1,.08-.32c.09-.28.19-.57.28-.86s.17-.71.28-1.05a4.58,4.58,0,0,0,.29-1.6c0-.32,0-.63,0-1a15.27,15.27,0,0,0-.16-2c-.11-.57-.15-1.15-.22-1.73,0-.32-.09-.64-.14-1-.08-.53-.17-1.07-.25-1.61a10.75,10.75,0,0,0-.14-1.14c-.2-.83-.45-1.65-.67-2.48s-.42-1.53-.6-2.31a19.84,19.84,0,0,0-.89-2.63,7.27,7.27,0,0,0-.38-.91,12.29,12.29,0,0,0-1.75-2.65s-.06-.1-.1-.15c-.38-.42-.72-.88-1.13-1.26-.58-.55-1.2-1-1.82-1.55s-1.09-.81-1.63-1.22a4.8,4.8,0,0,1-.56-.45,10.56,10.56,0,0,0-1.17-.95,7.5,7.5,0,0,1-1-.76,3,3,0,0,0-.63-.49,11.32,11.32,0,0,1-1.09-.71,9.41,9.41,0,0,0-1.51-1c-.19-.1-.39-.18-.59-.27l-.47-.19c-.11,0-.21-.12-.32-.16s-.43-.16-.64-.24l-1.5-.55c-.25-.1-.49-.2-.75-.28-.41-.11-.84-.19-1.26-.32s-1-.35-1.42-.51a6.52,6.52,0,0,1-.63-.18,11.44,11.44,0,0,0-1.73-.61,7.37,7.37,0,0,0-.79-.16c-.64-.15-1.28-.27-1.91-.41h-.08a4.17,4.17,0,0,1-.49-.08,2.34,2.34,0,0,0-.62-.12,4.62,4.62,0,0,1-1.34-.12,1.18,1.18,0,0,0-.25,0c-.78,0-1.56,0-2.33,0a16.27,16.27,0,0,1-1.85-.13,13.19,13.19,0,0,0-1.66-.09c-.46,0-.93.07-1.4.08s-.83-.05-1.25-.07a2.17,2.17,0,0,0-.36,0c-.27,0-.54.05-.8,0-.89,0-1.77-.07-2.65-.1H54.17c-.2,0-.41,0-.61,0-.43,0-.87-.09-1.3-.13l-.5,0h-.95c-.69,0-1.37,0-2.06,0l-1.86.06c-.89,0-1.78,0-2.67.09a3.53,3.53,0,0,0-.65,0,12.65,12.65,0,0,1-1.84.13c-.61.08-1.22,0-1.84.13a14.55,14.55,0,0,1-1.62,0h-.14a7.75,7.75,0,0,1-.94.11c-.82,0-1.64.05-2.46,0-.67,0-1.35.07-2,0s-1.43,0-2.14,0c-.45,0-.89-.07-1.34-.08s-1,0-1.54,0H26.5c-.6,0-1.21.09-1.8,0a29.51,29.51,0,0,0-3.12-.18,7.49,7.49,0,0,1-1.33-.13,4.49,4.49,0,0,0-1.37-.06h-.32c-.62,0-1.23-.07-1.85-.06s-1.41,0-2.11.06c-.4,0-.79.11-1.19.15l-.86,0Z"/></g><g id="SPLINE-3" data-name="SPLINE"><path class="cls-2" d="M12,566.28l.95-.12c.48,0,1-.12,1.44-.14s.75,0,1.13,0,.67,0,1,0a16.93,16.93,0,0,1,2.25-.19c.65,0,1.31.06,1.95.15A4.53,4.53,0,0,0,22,566a17.37,17.37,0,0,1,2.79-.11c.32,0,.63,0,.94,0a2.88,2.88,0,0,1,.72,0,3.4,3.4,0,0,0,1.38.09,11.63,11.63,0,0,1,2.57.06c.57,0,1.15.09,1.73.09a5.46,5.46,0,0,1,1.56.08.52.52,0,0,0,.21,0l.39,0,1.89-.08,1.49,0L40,566l3.78-.13c.65,0,1.3,0,2,0,.34,0,.68.09,1,.07.79-.05,1.57-.11,2.36-.09h.62l2.17,0a.33.33,0,0,1,.14,0,3,3,0,0,0,1.58.18c.31,0,.63-.07.94-.07.51,0,1,0,1.53,0,1.65,0,3.29-.07,4.94.09h.07l3.31,0c.61,0,1.23,0,1.85.05h.44l2.12-.26.44-.06c.59-.13,1.18-.26,1.77-.41,1.17-.31,2.38-.45,3.52-.85.89-.3,1.78-.6,2.65-1a17.41,17.41,0,0,0,1.76-.93c.29-.17.56-.38.86-.53A17.91,17.91,0,0,0,81.75,561c.5-.34,1-.66,1.48-1a8.49,8.49,0,0,0,1.38-1.16c.23-.28.52-.52.74-.83s.68-.85,1-1.28.42-.59.65-.86a7.44,7.44,0,0,0,.71-1.05c.3-.5.66-1,1-1.44a9.56,9.56,0,0,0,.66-1,19.73,19.73,0,0,1,1-1.93c.44-.68.84-1.39,1.24-2.09a5,5,0,0,0,.28-.63c.06-.13.11-.27.16-.4a4.25,4.25,0,0,0,.3-.74,13.69,13.69,0,0,1,.62-2.34,9.37,9.37,0,0,0,.28-.9,5.69,5.69,0,0,0,.12-.72c0-.33.06-.67.1-1a5,5,0,0,0,.11-.53c0-.4,0-.79,0-1.19l0-2.1c0-.34,0-.69,0-1a10.65,10.65,0,0,0-.25-2.19,3.71,3.71,0,0,1-.13-1,1.14,1.14,0,0,0-.13-.69,4.34,4.34,0,0,1-.36-.83,3.06,3.06,0,0,0-.33-.68,3.42,3.42,0,0,1-.58-1.47.58.58,0,0,0,0-.14l-1.09-2a8.44,8.44,0,0,1-.65-1.4,5.33,5.33,0,0,0-.73-1.4,9.79,9.79,0,0,0-1.13-1.37c-.42-.42-.69-1-1.26-1.28,0,0,0,0-.08-.08-.39-.34-.77-.69-1.17-1-.24-.21-.51-.37-.74-.58s-.49-.47-.74-.7a.44.44,0,0,0-.28-.14c-.16,0-.21-.07-.29-.16a9.08,9.08,0,0,0-.68-.71,7.65,7.65,0,0,0-2-1.13,1.66,1.66,0,0,1-.33-.15,7.14,7.14,0,0,0-2.22-1.12.38.38,0,0,1-.19-.09,1.05,1.05,0,0,0-.53-.23,3.31,3.31,0,0,1-.41-.14c-.24-.07-.48-.16-.73-.22-.45-.1-.9-.16-1.35-.28a11.25,11.25,0,0,0-1.52-.27,4,4,0,0,1-.5-.06,25.19,25.19,0,0,0-2.87-.45c-.25,0-.51,0-.75-.06a22.23,22.23,0,0,0-2.7-.26c-.41,0-.82-.07-1.23-.09a5.65,5.65,0,0,0-1.09,0,3.22,3.22,0,0,1-1.54-.08,1.63,1.63,0,0,0-.49-.09c-.37,0-.74,0-1.12-.08-.19,0-.38-.05-.57-.07l-2.21-.13c-.32,0-.63-.07-.95-.08H55.85l-1.27,0c-.42,0-.84-.06-1.26,0-.75,0-1.49.13-2.24.18-.39,0-.79,0-1.19,0-1,0-2-.14-3-.11a9.55,9.55,0,0,0-2.07,0h0a6.68,6.68,0,0,0-1.73,0,4.44,4.44,0,0,1-1.41,0,1.7,1.7,0,0,0-.22,0c-.85.06-1.71.17-2.57.18-1.17,0-2.35,0-3.52,0-.44,0-.88,0-1.31.05l-1,0-.47,0c-.36,0-.72.07-1.08.07-.89,0-1.79-.09-2.68-.06s-1.75-.08-2.63-.11c-.52,0-1-.07-1.55-.08a8.2,8.2,0,0,0-.85.1,30.78,30.78,0,0,1-4.8.16,7.25,7.25,0,0,0-2,.14,2,2,0,0,1-.54.08c-.89,0-1.79,0-2.68-.07h-.22a5.61,5.61,0,0,1-1.83.09,1.42,1.42,0,0,0-.2,0,4.42,4.42,0,0,1,0,.49,4.59,4.59,0,0,0,0,1.48,3.08,3.08,0,0,1,.08.68c0,.71,0,1.43,0,2.14,0,.17,0,.34,0,.51a5.65,5.65,0,0,0,0,1.59,3.08,3.08,0,0,1,.08.53q0,.75-.06,1.5c0,.82-.11,1.64-.14,2.46s0,1.39,0,2.08a6.14,6.14,0,0,1,0,1,5.06,5.06,0,0,0,0,1.23.7.7,0,0,1,0,.25,5.37,5.37,0,0,0,.05,1.33,2,2,0,0,0,0,.35,11.79,11.79,0,0,1,.24,1.27c0,.59,0,1.19,0,1.78a3.82,3.82,0,0,1,0,.76c-.11.56,0,1.13-.08,1.69a2.23,2.23,0,0,0,.05.36.73.73,0,0,1,0,.25,23.75,23.75,0,0,1,.07,2.53s0,.07,0,.11a4.21,4.21,0,0,1,0,.5c0,.67,0,1.33,0,2v2.4c0,.58,0,1.16,0,1.74s0,1,0,1.46-.06.87-.07,1.3c0,.73,0,1.47,0,2.2s.06,1.47.08,2.21,0,1.55,0,2.32c0,.27.05.54,0,.8,0,.58-.09,1.16-.05,1.73a16.82,16.82,0,0,1,0,2.13c0,1-.06,2-.08,3a1,1,0,0,0,0,.25c0,.34.06.67.1,1A2.21,2.21,0,0,0,12,566.28Z"/></g></g><g id="Layer_4_U_00A0Image" data-name="Layer 4_U+00A0Image"><g id="SPLINE-4" data-name="SPLINE"><path class="cls-1" d="M113.54,510.48c.08-.16.14-.33.23-.48.22-.33.46-.65.68-1s.35-.57.54-.84a2.86,2.86,0,0,1,.39-.47.93.93,0,0,1,.26-.15c.11-.07.23-.13.34-.21s.26-.24.4-.36a1.65,1.65,0,0,1,.93-.41,2.22,2.22,0,0,0,.52-.2c.17-.07.34-.11.51-.17a1.85,1.85,0,0,0,.48-.19,1.27,1.27,0,0,1,.67-.2,3.62,3.62,0,0,1,1.6.18c.47.18.92.4,1.4.55a5.79,5.79,0,0,1,1.18.69,5.91,5.91,0,0,1,1.36,1c.14.16.29.32.42.5.29.39.58.78.85,1.18a3.48,3.48,0,0,1,.4.95,10.46,10.46,0,0,1,.18,2.68,3.08,3.08,0,0,1-.26,1.34c-.08.21-.16.43-.26.64s-.21.35-.29.53-.26.61-.43.89a1.75,1.75,0,0,1-.45.45c-.27.2-.56.37-.84.55a.51.51,0,0,1-.16.09.87.87,0,0,0-.51.45.26.26,0,0,1-.09.09l-1.36.72c-.16.08-.3.2-.46.26a6.66,6.66,0,0,1-.85.31,3.6,3.6,0,0,1-.66,0c-.27,0-.55,0-.82,0a4.59,4.59,0,0,1-1.23-.13,2.13,2.13,0,0,1-.58-.1c-.41-.17-.79-.38-1.18-.57,0,0,0,0,0,0-.31,0-.35-.28-.5-.45s-.46-.5-.68-.77a7,7,0,0,1-.46-.61,5.09,5.09,0,0,1-.34-.47,6.28,6.28,0,0,1-.72-1.5,1.32,1.32,0,0,0-.16-.25Z"/></g><g id="SPLINE-5" data-name="SPLINE"><path class="cls-1" d="M124.72,647.71l-.47,0c-.61,0-1.22,0-1.84,0-.46,0-.92-.08-1.39-.09s-1,0-1.56,0a5.46,5.46,0,0,1-1,0,14,14,0,0,0-2.24-.1c-.4,0-.81,0-1.21,0a4.19,4.19,0,0,1-.69-.13c-.14,0-.11-.15-.1-.24,0-.35.08-.71.08-1.07a6.7,6.7,0,0,0-.1-1.09,11.08,11.08,0,0,1-.11-2.15c0-.49.08-1,.12-1.45,0-.12,0-.25,0-.38v-.86c0-.07,0-.13,0-.2s0-.23,0-.35,0-.34,0-.51l0-.72c0-.34,0-.68,0-1a17,17,0,0,0,0-2.85c0-.53,0-1.06,0-1.59,0-.36,0-.73-.07-1.09,0-.17,0-.35,0-.52l.06-2,.06-1.7c0-.28,0-.55,0-.82s.06-.63.09-.94,0-.38,0-.57l0-2.22c0-1,0-1.92,0-2.88a6.83,6.83,0,0,1,.09-.76c0-.1,0-.2,0-.3,0-.83,0-1.66,0-2.49,0-.22,0-.44,0-.67,0-.41,0-.83,0-1.25s0-.89,0-1.33,0-.77,0-1.15-.06-1.05-.07-1.58c0-.33,0-.66,0-1s0-.91-.06-1.36,0-.63,0-.94a10.39,10.39,0,0,1,.1-1.76c0-.43,0-.87,0-1.3,0-.59,0-1.18,0-1.77,0-.29-.05-.59-.05-.88,0-.71,0-1.41,0-2.12,0-.53,0-1.06,0-1.6,0-.24,0-.48,0-.72s0-.37,0-.55c0-.6,0-1.2,0-1.8s0-.93,0-1.39c0-.17,0-.34,0-.51s0-.49,0-.73,0-.59,0-.89-.06-.84-.06-1.26c0-1,0-1.93,0-2.89,0-.43,0-.86.06-1.29s0-.71,0-1.06,0-.46.05-.69c0-.62.08-1.25.11-1.88,0-.41,0-.82,0-1.23s0-.93,0-1.39-.08-.73-.09-1.09q0-1.17,0-2.34c0-.56,0-1.12.05-1.69,0-.32,0-.65,0-1,0-.73-.08-1.45-.1-2.17,0-.31,0-.61,0-.92,0-.55,0-1.1-.05-1.65,0-.37,0-.74,0-1.11,0-.21,0-.43,0-.64s.07-.47.09-.7,0-.49,0-.74c0-.55,0-1.09,0-1.64s0-1,0-1.47,0-.72,0-1.08,0-.95,0-1.42a5,5,0,0,1,.07-.54q0-.32,0-.63a10.44,10.44,0,0,1,.06-1.58,6.83,6.83,0,0,0,0-.78c0-.29,0-.57,0-.86s0-.63,0-.94-.16-.53-.18-.81-.08-.69-.09-1,0-.88,0-1.32.07-.86.08-1.28a6,6,0,0,0-.08-.84,1,1,0,0,1,0-.17c0-.43,0-.87.06-1.31,0-.25,0-.51,0-.77,0-.47,0-.94,0-1.41s0-1,0-1.48c0-.12,0-.25,0-.38a.28.28,0,0,1,.32-.22,1.76,1.76,0,0,1,.3.1.74.74,0,0,0,.14,0l1.4-.08c.27,0,.53-.07.8-.07a7.72,7.72,0,0,1,1.07,0,3.89,3.89,0,0,0,1.13-.07.58.58,0,0,1,.32,0,2.36,2.36,0,0,0,1.12,0,3.13,3.13,0,0,1,.53,0l.47,0h.58l1.68-.06c.26,0,.4.08.42.33,0,.66.09,1.31.08,2a8.06,8.06,0,0,1,.06,1,4.83,4.83,0,0,1,0,.93,2.2,2.2,0,0,0,.06.71c0,.36.08.72.1,1.08,0,.11-.06.22-.06.33s.05.24.05.35c0,.38,0,.76,0,1.13a2.13,2.13,0,0,0,0,.44c.05.31,0,.63,0,.94a4.64,4.64,0,0,1,0,.64,2.32,2.32,0,0,1-.08,1.33.28.28,0,0,0,0,.09c0,.55,0,1.09,0,1.63,0,.14,0,.27,0,.4,0,.3-.07.59-.08.88,0,.44,0,.89,0,1.33,0,.68-.07,1.35-.11,2,0,.42,0,.85,0,1.28,0,.14.08.27,0,.42s.05.23.05.35c0,.3,0,.61,0,.92s0,.76.06,1.14a19.23,19.23,0,0,1,.08,2.28c0,.77,0,1.55,0,2.32,0,.25,0,.5-.06.75,0,.42-.07.83-.09,1.25s0,.62,0,.94,0,.73,0,1.1,0,.57,0,.85c0,.49,0,1,0,1.47q0,1.15-.12,2.31c-.05.88-.11,1.75-.16,2.63,0,.25,0,.49,0,.74,0,.49,0,1,0,1.48s0,1.09,0,1.63c0,.34,0,.68,0,1s.08.9.1,1.34c0,.6,0,1.2,0,1.8,0,.34,0,.68.06,1s.06.91.06,1.37,0,.95-.07,1.43-.09,1-.13,1.51c0,.11,0,.21,0,.31,0,.61,0,1.21,0,1.82,0,.43,0,.87,0,1.3,0,.8,0,1.6,0,2.4,0,.13,0,.26,0,.39,0,.37,0,.74,0,1.1s-.06.9-.06,1.35.07.79.1,1.19,0,.82,0,1.23c0,.23,0,.45,0,.68,0,.48,0,1,0,1.43,0,.65.07,1.29.13,1.93a7.64,7.64,0,0,1,0,1,2.62,2.62,0,0,0,0,.28c0,.45,0,.89,0,1.34,0,.24.06.49.08.73s0,.36,0,.54a13.63,13.63,0,0,1,0,1.81c0,.51,0,1,0,1.54s0,.95,0,1.42v1.32c0,.5,0,1,0,1.5s0,.91,0,1.36,0,.9,0,1.34v1.05c0,.2,0,.4,0,.6,0,.5,0,1,0,1.51s0,1.06,0,1.59c0,.26,0,.51,0,.77,0,.51,0,1,0,1.55s0,1.08,0,1.61-.07,1.18-.08,1.77,0,1,0,1.45v.74a3,3,0,0,0,0,.6,6.93,6.93,0,0,1,.11,2.18c0,.44-.25.82-.29,1.25a4.87,4.87,0,0,0,0,.54s0,.08,0,.13c0,.57,0,1.14,0,1.72v2.1c0,.12,0,.24,0,.36,0,.53,0,1.06.07,1.58,0,0,0,0,0,0A1.24,1.24,0,0,0,124.72,647.71Z"/></g></g><g id="Layer_3_U_00A0Image" data-name="Layer 3_U+00A0Image"><g id="SPLINE-6" data-name="SPLINE"><path class="cls-1" d="M173.6,648.21c-.21-.06-.41-.12-.62-.16-.76-.16-1.51-.34-2.28-.46a8.41,8.41,0,0,1-1.48-.36,9.7,9.7,0,0,0-1.86-.27c-.3,0-.6-.06-.9-.11a5.61,5.61,0,0,0-1.13-.21,3.58,3.58,0,0,1-1-.23l-.9-.28A1.22,1.22,0,0,0,163,646a3,3,0,0,1-1.31-.37c-.36-.16-.7-.32-1.07-.46a3,3,0,0,1-.82-.51c-.37-.27-.69-.59-1.07-.84a4.74,4.74,0,0,0-1.56-.81.56.56,0,0,1-.28-.16,1.8,1.8,0,0,0-.49-.34c-.2-.13-.39-.28-.58-.42-.35-.27-.69-.56-1.06-.8a5.64,5.64,0,0,0-1.25-.63,3.73,3.73,0,0,1-1.26-.63,1.23,1.23,0,0,0-.25-.14l-.7-.4c-.37-.22-.75-.43-1.12-.67-.57-.37-1.13-.76-1.7-1.15a.49.49,0,0,1-.19-.16c-.32-.45-.85-.64-1.21-1a5.46,5.46,0,0,0-1.55-1A5,5,0,0,1,144,634.3c-.09-.11-.2-.21-.3-.31l-.47-.46a1,1,0,0,0-.2-.2,1.35,1.35,0,0,1-.5-.56A3.5,3.5,0,0,0,142,632a4.11,4.11,0,0,1-.43-.63c-.21-.32-.43-.64-.63-1a4.47,4.47,0,0,1-.41-.69,9.33,9.33,0,0,0-.91-1.48,8.83,8.83,0,0,1-.72-1.27,9.67,9.67,0,0,0-1-1.48c-.27-.4-.55-.8-.8-1.22a6.32,6.32,0,0,0-.64-.92,10.79,10.79,0,0,1-1-1.31,7.29,7.29,0,0,1-.45-1c-.25-.61-.49-1.22-.77-1.81a5.63,5.63,0,0,0-.67-1.17,4.77,4.77,0,0,1-.92-2.34c-.12-.72-.2-1.44-.3-2.16a8,8,0,0,0-.63-2.09,29,29,0,0,1-1.2-3.55c-.14-.47-.22-1-.33-1.45a6.21,6.21,0,0,0-.2-.74,11.22,11.22,0,0,1-.68-3.23,4,4,0,0,1,0-1,3.14,3.14,0,0,0-.12-1.26,8.61,8.61,0,0,1-.27-2.2c0-.72-.05-1.43-.1-2.15a13.93,13.93,0,0,1,.25-3.47,8.68,8.68,0,0,0,.14-1.52,28.18,28.18,0,0,1,.27-4.4,18.84,18.84,0,0,1,.72-3.23,9.52,9.52,0,0,0,.43-2.54,18.45,18.45,0,0,1,.64-3.84,8.38,8.38,0,0,0,.32-2.73,2.34,2.34,0,0,1,.2-.84c.07-.23.15-.46.23-.68s.23-.72.35-1.07l.57-1.65.71-2a8.44,8.44,0,0,1,1-1.83,5.18,5.18,0,0,0,.45-1,8.93,8.93,0,0,1,1-1.67c.16-.25.34-.5.52-.74s.35-.4.51-.61L138,561l.81-1.08a.77.77,0,0,0,.14-.21,18.44,18.44,0,0,1,2.11-3.34,10.22,10.22,0,0,1,.78-1c.27-.29.58-.54.87-.82a2.16,2.16,0,0,0,.27-.33,2.7,2.7,0,0,1,.89-.89c.23-.11.37-.37.56-.56a3.5,3.5,0,0,1,.52-.5,8.42,8.42,0,0,0,1.57-1.41c.45-.46.9-.91,1.37-1.36a1.64,1.64,0,0,1,.37-.28,7.8,7.8,0,0,0,2-1.72,7.45,7.45,0,0,1,1.62-1.4,3.45,3.45,0,0,0,.73-.54,3.71,3.71,0,0,1,1.17-.71,1.76,1.76,0,0,0,.56-.33,3.82,3.82,0,0,1,1.22-.77.77.77,0,0,0,.21-.14,2.36,2.36,0,0,1,.89-.61,14.64,14.64,0,0,1,1.41-.74,15.21,15.21,0,0,0,1.84-.83c.29-.15.64-.18.93-.32a9.12,9.12,0,0,1,2.62-.63,1.18,1.18,0,0,0,.46-.2,2,2,0,0,1,.84-.32,11,11,0,0,0,1.15-.19,4.27,4.27,0,0,0,.84-.32,3.19,3.19,0,0,1,.76-.23c.76-.13,1.52-.3,2.28-.46l1.18-.24a.7.7,0,0,1,.25,0,12.3,12.3,0,0,0,2.1-.08.7.7,0,0,1,.25,0,2.12,2.12,0,0,0,1.45-.1,5,5,0,0,1,1.12-.25c.9-.06,1.8-.1,2.69-.07a8.46,8.46,0,0,1,1.47.28l2.13.44a2.26,2.26,0,0,1,.94.27c.08.06.23,0,.35,0h.54c.39,0,.78,0,1.16.05.58.06,1.15.15,1.73.23.17,0,.33.07.5.08a6.15,6.15,0,0,1,1.58.42l1.31.43c.31.11.62.21.92.34.5.21,1,.44,1.49.67a.78.78,0,0,0,.25.07,3.41,3.41,0,0,1,1.35.37l.55.15s.08,0,.11,0c.59.27,1.19.53,1.77.82a2.66,2.66,0,0,1,.51.39,2.61,2.61,0,0,0,.86.6.7.7,0,0,1,.21.14,8.18,8.18,0,0,0,1.33,1l1.48,1,.09.06c.46.1.66.47.89.81a1.91,1.91,0,0,0,.49.53s0,0,.05.05a5.34,5.34,0,0,0,1.22.95c.3.23.54.52.85.74.69.48,1.33,1,2.06,1.45a3,3,0,0,0,.79.42,2,2,0,0,1,.88.73,8,8,0,0,0,1.54,1.43,3.65,3.65,0,0,1,.47.49,2.5,2.5,0,0,0,.27.29,3.68,3.68,0,0,1,.77.9l.23.28c.24.33.48.65.73,1a10.89,10.89,0,0,0,.84,1,5.82,5.82,0,0,1,.88,1.1,2.73,2.73,0,0,0,.42.48,4.26,4.26,0,0,1,.68.9,3.13,3.13,0,0,0,.57.69,2.94,2.94,0,0,1,.54.81,1.26,1.26,0,0,0,.13.26c.27.36.56.72.81,1.09a8.24,8.24,0,0,1,.42.77,8.44,8.44,0,0,1,.82,1.81,4,4,0,0,0,.4.86,2.24,2.24,0,0,1,.33,1.1,2.75,2.75,0,0,0,.42,1.45,3.87,3.87,0,0,1,.61,1.77,1.56,1.56,0,0,0,.17.63,13.09,13.09,0,0,1,.61,1.83,19.58,19.58,0,0,0,.88,2.31,8.27,8.27,0,0,1,.38,1.09c.1.28.19.55.3.82l.28.63a6.17,6.17,0,0,1,.45,2.48,9.05,9.05,0,0,0,.12,1.37,23.44,23.44,0,0,1,.19,3,3.68,3.68,0,0,0,.33,1.66.82.82,0,0,1,.07.31c0,.44.11.87.14,1.31.06.72.11,1.45.15,2.17a9.33,9.33,0,0,1-.14,2.11,4.21,4.21,0,0,0-.06.79c0,1.56,0,3.11,0,4.67a14.54,14.54,0,0,1-.45,3.53c-.16.59-.2,1.22-.33,1.83a9.86,9.86,0,0,1-.8,2.52,7.4,7.4,0,0,0-.71,2.65c-.08.75-.18,1.5-.27,2.24a2.33,2.33,0,0,1-.08.36c-.4,1-.69,2.12-1.17,3.13a17,17,0,0,0-.73,1.83,12.19,12.19,0,0,1-1.18,2.37c-.13.22-.25.45-.37.67-1,2-2,3.92-3,5.89-.45.88-.85,1.78-1.28,2.66a10.36,10.36,0,0,1-.52.92,4,4,0,0,1-.35.46c-.32.38-.64.76-.95,1.15a19.94,19.94,0,0,1-1.74,2.15,1.53,1.53,0,0,0-.14.21c-.21.25-.42.5-.65.74-.43.45-.88.89-1.33,1.34-.17.17-.35.33-.53.49l-.34.28L206,636.17c-.14.13-.26.29-.41.42-.37.34-.75.68-1.14,1s-.85.65-1.28,1l-1,.79a.76.76,0,0,1-.32.17,2.34,2.34,0,0,0-1,.51,1.61,1.61,0,0,1-.31.19c-.23.12-.48.22-.7.36a21.26,21.26,0,0,0-1.79,1.18,13.68,13.68,0,0,1-2.4,1.25c-.31.16-.61.34-.91.51l-.06,0-1.26.65a1.27,1.27,0,0,0-.22.13,1.39,1.39,0,0,1-.84.3.76.76,0,0,0-.4.13,3.25,3.25,0,0,1-1,.41c-.25.06-.48.16-.73.23a2.43,2.43,0,0,1-.63.16,7.87,7.87,0,0,0-2.5.85c-.34.15-.7.27-1.05.39l-1.1.37a12.4,12.4,0,0,1-2.26.54h0c-.65.2-1.34.17-2,.32a1.35,1.35,0,0,1-.57,0,1,1,0,0,0-.79.16Z"/></g><g id="SPLINE-7" data-name="SPLINE"><path class="cls-2" d="M212.22,580.88a2.22,2.22,0,0,0-.32-1.41,3.79,3.79,0,0,1-.29-.65c-.18-.53-.34-1.08-.51-1.61s-.45-1.28-.66-1.93a11.24,11.24,0,0,1-.33-1.3,5.64,5.64,0,0,0-.39-1.39c-.11-.24-.18-.49-.27-.74a8.65,8.65,0,0,0-.42-1.18,6.07,6.07,0,0,1-.34-.79c-.19-.52-.35-1-.52-1.58a14.78,14.78,0,0,0-.65-1.54c-.1-.22-.18-.45-.3-.66s-.43-.67-.64-1a12.28,12.28,0,0,0-1.1-1.5,18.24,18.24,0,0,0-1.64-1.65c-.43-.4-.89-.78-1.31-1.2a11.94,11.94,0,0,1-.83-.91c-.07-.09-.1-.23-.18-.31l-1.23-1.23c-.37-.36-.76-.7-1.11-1.08-.58-.6-1.14-1.21-1.71-1.82a2.5,2.5,0,0,0-.22-.24c-.56-.49-1.1-1-1.68-1.44a7.49,7.49,0,0,0-1.42-1c-.51-.25-1-.46-1.55-.75a6.12,6.12,0,0,0-.88-.32,10.38,10.38,0,0,0-1.55-.5,2.69,2.69,0,0,1-.64-.26,7.18,7.18,0,0,0-1.3-.56,7.36,7.36,0,0,1-1-.42c-.43-.19-.86-.39-1.31-.54s-.82-.19-1.23-.3c-.65-.19-1.35-.26-2-.39l-1.6-.34c-.1,0-.2-.08-.3-.09-.3,0-.61,0-.91-.09A4.53,4.53,0,0,1,179,548a3.89,3.89,0,0,0-1.27-.21,3.15,3.15,0,0,1-1.06,0,1.25,1.25,0,0,0-.47,0,2.73,2.73,0,0,1-.5.05,6.8,6.8,0,0,0-1.91.17,1.75,1.75,0,0,1-.51,0,6.95,6.95,0,0,0-3.36.44c-.52.19-1,.42-1.54.62-.08,0-.17,0-.25,0a1.77,1.77,0,0,0-.71.19,2,2,0,0,1-1.1.43,5.57,5.57,0,0,0-1.64.55A7.49,7.49,0,0,1,163,551a2.91,2.91,0,0,0-.82.26c-.61.32-1.2.69-1.8,1s-1,.52-1.43.79c-.2.11-.4.22-.59.35-.47.34-.93.69-1.41,1a5.44,5.44,0,0,0-1.51,1.55,6.21,6.21,0,0,1-1.29,1.46c-.34.29-.72.53-1.08.79a1.56,1.56,0,0,0-.2.16c-.28.28-.55.58-.85.84a7.26,7.26,0,0,0-1.13,1.51c-.06.08-.09.19-.15.28a2.36,2.36,0,0,1-.22.38c-.46.55-.94,1.1-1.4,1.66-.26.33-.5.68-.74,1a.68.68,0,0,0-.11.34,2.78,2.78,0,0,1-.48,1.21,1.83,1.83,0,0,0-.28.46,5.06,5.06,0,0,1-1.07,1.55,3.64,3.64,0,0,0-.8,1.53,4.58,4.58,0,0,1-.46,1.44c-.1.16-.21.32-.31.49s-.12.18-.17.27a9.85,9.85,0,0,1-.47,1,6.23,6.23,0,0,0-.79,1.79c-.25.92-.55,1.84-.79,2.76-.18.64-.3,1.3-.44,2a5.21,5.21,0,0,1-.09.57,40.63,40.63,0,0,0-1,4.47c-.17,1-.28,1.92-.41,2.88a16.69,16.69,0,0,0-.23,1.85c-.05,1.4-.05,2.81-.06,4.22a3.23,3.23,0,0,0,0,.44c.06,1.25.14,2.49.17,3.74a11.15,11.15,0,0,0,.71,4.32,2.35,2.35,0,0,1,.14.45c.1.47.18.93.29,1.39.24.92.5,1.82.73,2.74.16.6.28,1.2.45,1.8s.33,1,.48,1.45a1.08,1.08,0,0,1,.06.5,2,2,0,0,0,.14,1.17,15.47,15.47,0,0,1,.69,2c.1.46.3.9.44,1.35a2.69,2.69,0,0,0,.39,1,.44.44,0,0,1,.07.17,4.4,4.4,0,0,0,.66,1.2c.24.32.48.64.7,1,.39.62.75,1.25,1.14,1.86a6.48,6.48,0,0,1,.79,1.86,4.25,4.25,0,0,0,.64,1.61.75.75,0,0,1,.09.15c.22.36.41.74.66,1.08s.63.81,1,1.21.83,1,1.26,1.54a3.71,3.71,0,0,0,.27.29l.82.77c.08.06.14.14.22.19a12.14,12.14,0,0,1,1.74,1.54c.68.62,1.43,1.14,2.16,1.7a7.61,7.61,0,0,0,.75.51c.15.1.32.16.47.26l1,.59,1.24.74c.53.32,1.05.66,1.58,1,.19.11.42.18.62.28s.55.29.84.42c.48.23,1,.44,1.44.68a1.68,1.68,0,0,0,.66.19,9.94,9.94,0,0,1,1.08.13,6.16,6.16,0,0,1,1.55.75,4.92,4.92,0,0,0,1,.44c.34.09.68.18,1,.25s.43.06.65.1a.51.51,0,0,1,.3.09,1.43,1.43,0,0,0,1.06.25h.72l.92,0a2.17,2.17,0,0,1,.36,0,6.46,6.46,0,0,0,1.81,0,.53.53,0,0,1,.25,0,1.35,1.35,0,0,0,.82,0,.53.53,0,0,1,.21,0,4,4,0,0,0,1.55,0h.08a2.14,2.14,0,0,0,1-.12c.4-.1.82-.16,1.23-.25a7.19,7.19,0,0,0,1.24-.27,9.87,9.87,0,0,1,1.84-.67c.28,0,.56-.11.85-.14a5,5,0,0,1,.86-.15.24.24,0,0,0,.1,0c.3-.2.6-.4.91-.59a5.44,5.44,0,0,1,.65-.3,5.77,5.77,0,0,0,1.69-.73.26.26,0,0,1,.13-.06,9.32,9.32,0,0,0,1.82-1c.15-.09.29-.22.44-.32s.58-.35.86-.54c.43-.29.85-.6,1.28-.9.61-.43,1.24-.84,1.84-1.29.81-.61,1.58-1.28,2.41-1.87a17.32,17.32,0,0,0,1.86-1.67c.33-.31.62-.67.93-1s.41-.4.6-.62.58-.67.85-1c.42-.54.83-1.1,1.23-1.66s.88-1.36,1.36-2a11.91,11.91,0,0,0,.88-1.45c.36-.72.68-1.45,1-2.17.21-.44.42-.87.64-1.3.41-.77.84-1.53,1.24-2.3s.64-1.24.93-1.87.55-1.31.82-2a6.66,6.66,0,0,0,.33-.72,6.35,6.35,0,0,1,.55-1.41,2.09,2.09,0,0,0,.16-.44c.24-.84.47-1.69.7-2.53l0-.11c.12-.44.26-.89.36-1.34s.09-.73.21-1.07a5.34,5.34,0,0,0,.22-1.53c0-.7.22-1.36.29-2,0-.39.14-.78.19-1.17.09-.66.16-1.31.23-2s.1-1,.13-1.55a6.4,6.4,0,0,0,0-1c0-.31-.13-.61-.19-.92a6.1,6.1,0,0,1-.13-2.13,6.61,6.61,0,0,0-.18-2.58c-.13-.51-.21-1-.3-1.57a9.63,9.63,0,0,0-.64-2.48A5.58,5.58,0,0,1,212.22,580.88Z"/></g></g><g id="Layer_0_U_00A0Image" data-name="Layer 0_U+00A0Image"><g id="SPLINE-8" data-name="SPLINE"><path class="cls-1" d="M324.09,569.34a1.69,1.69,0,0,0,.45.11,3.12,3.12,0,0,1,1.66.43,2,2,0,0,0,.68.21,5.44,5.44,0,0,1,2.61,1.08,7.84,7.84,0,0,0,1.29.74,1.06,1.06,0,0,1,.4.3.85.85,0,0,0,.33.21c.32.16.65.31,1,.49s.54.37.8.55c0,0,.06.06.09.06.25,0,.39.23.59.34s.38.26.57.38l1.26.78c.7.45,1.41.89,2.09,1.37a10.71,10.71,0,0,1,.84.81c.23.21.49.4.72.6s.36.33.53.5c.4.44.81.87,1.19,1.33a8.22,8.22,0,0,1,1,1.31c.41.7.75,1.44,1.1,2.17.09.18.1.4.19.58a10.29,10.29,0,0,0,1.53,2.63A7,7,0,0,1,346,588c.14.28.29.56.44.83s.49.79.67,1.21a12.78,12.78,0,0,1,.55,1.5c.34,1,.66,2.05,1,3.08a1.15,1.15,0,0,1,.06.17c.17.84.36,1.68.51,2.53.07.35.05.72.09,1.08.08.7.18,1.4.27,2.09a35.89,35.89,0,0,1,.34,3.73,25.57,25.57,0,0,0,.18,2.76.88.88,0,0,1,0,.28c0,.52-.05,1-.11,1.56a7.28,7.28,0,0,1-.22,1.32,7.64,7.64,0,0,0-.29,2.12,4.62,4.62,0,0,1-.06.65c-.25,1.22-.38,2.46-.72,3.67-.15.52-.3,1-.44,1.57q-.07.3-.12.6a17.26,17.26,0,0,1-.77,2.84,10.22,10.22,0,0,1-.34,1.07,13,13,0,0,1-.67,1.2,2.44,2.44,0,0,0-.14.28,4.38,4.38,0,0,1-.53,1.14,7.71,7.71,0,0,0-.52.75c-.24.39-.46.79-.68,1.19s-.36.68-.56,1a13.12,13.12,0,0,1-1.18,1.69,11.26,11.26,0,0,1-1.18,1.31c-.46.36-.86.79-1.31,1.15a6.77,6.77,0,0,1-1.4,1c-.52.27-1,.6-1.52.91a3.08,3.08,0,0,0-.58.35,9.88,9.88,0,0,0-.66.77c-.18.22-.35.43-.54.63a7,7,0,0,1-.7.74,10.1,10.1,0,0,1-1,.73c-.4.29-.81.57-1.22.84a2.46,2.46,0,0,1-.46.28,11.83,11.83,0,0,0-1.86,1c-.18.1-.37.17-.55.27a15.63,15.63,0,0,1-1.73,1,14.55,14.55,0,0,1-2.32.92,6.28,6.28,0,0,0-1.16.44c-.63.28-1.26.6-1.89.9a7.35,7.35,0,0,1-.77.32c-.8.29-1.59.59-2.39.85s-1.42.41-2.13.6a1.41,1.41,0,0,0-.31.1c-.56.24-1.09.55-1.66.73a7.43,7.43,0,0,1-3,.38,6.52,6.52,0,0,0-2,0,7.53,7.53,0,0,1-.83.07l-1.36.19c-.14,0-.28.08-.42.11a8.6,8.6,0,0,1-1.6.25c-.7,0-1.4.11-2.1.17l-.57,0c-.53.05-1.05.13-1.58.16a15.09,15.09,0,0,0-1.79.22c-.46.08-.94.1-1.4.16s-.8.1-1.19.12-.9,0-1.34,0-1.12-.13-1.68-.14a1.23,1.23,0,0,0-.25.05c-.07,0-.15,0-.21,0a4.18,4.18,0,0,0-1.22-.11,9.46,9.46,0,0,0-2,0,1.09,1.09,0,0,1-.36,0,6.31,6.31,0,0,0-1.84.08,2.93,2.93,0,0,1-1,0,1.57,1.57,0,0,0-.57,0,6.39,6.39,0,0,1-1.45,0c-.55,0-1.11,0-1.66.06-.11,0-.21,0-.32.06a.87.87,0,0,1-.39,0,2.06,2.06,0,0,0-.89-.05c-.24,0-.49,0-.73,0H279.1l-1.27,0-1.3-.06c-.35,0-.7-.07-1-.07-.83,0-1.65,0-2.47,0a6.79,6.79,0,0,1-1.8-.16q-.61-.15-1.23-.27a4.19,4.19,0,0,0-1,0c-.75.06-1.5,0-2.25,0h-1.05l-.94,0a4.28,4.28,0,0,0-.62,0,17.9,17.9,0,0,1-2.63.27l-2.72-.14a12.68,12.68,0,0,0-2.22.15,6.31,6.31,0,0,1-.76.07c-.59,0-1.19,0-1.78,0-.41,0-.81-.1-1.22-.15a4.33,4.33,0,0,0-.62,0,7.73,7.73,0,0,1-1.52,0,2.32,2.32,0,0,0-.64.06l-1.24.08c-.43,0-.87,0-1.3.07a7.55,7.55,0,0,1-1.26-.07c-.42,0-.85,0-1.27,0l-1.49,0h-.51a11.76,11.76,0,0,1-2.13-.16,2,2,0,0,0-.69,0,7,7,0,0,1-1.29,0c-.32,0-.63,0-.94,0l-2,.08c-.35,0-.7,0-1,.08-.74.06-1.49.14-2.24.18l-2.9.15c-.38,0-.49-.14-.35-.49a2,2,0,0,0,.06-.9c0-.2,0-.41,0-.61a2.11,2.11,0,0,0,0-.25,9.2,9.2,0,0,1,0-1.74c0-.58,0-1.16,0-1.75s0-1.3,0-2,0-1.28,0-1.92,0-1.3-.09-2c-.06-.87.13-1.72.12-2.57s0-1.48-.06-2.21a6.91,6.91,0,0,1,0-.91,9.49,9.49,0,0,0,0-1.41,2.77,2.77,0,0,1,.11-.71,3.54,3.54,0,0,0,.05-1c0-.38.05-.75,0-1.13a14.12,14.12,0,0,0-.09-1.59c-.08-.61-.24-1.21-.33-1.82a8.56,8.56,0,0,1-.12-1.34c0-.82.07-1.64.1-2.47,0-.58,0-1.16,0-1.74,0-.43,0-.85,0-1.28,0-.24,0-.48-.06-.72a2,2,0,0,1,0-.54,12.35,12.35,0,0,0,.14-2.1c.05-.63,0-1.26.06-1.89.08-1.23,0-2.45,0-3.67,0-.78,0-1.56.06-2.33a9.22,9.22,0,0,0-.16-2,14.3,14.3,0,0,1-.25-3.33c0-.51.12-1,.17-1.55,0-.14,0-.29,0-.43,0-.3.05-.6.06-.91s0-.52,0-.79,0-.6,0-.91c0-.58-.07-1.16-.09-1.74,0-.24,0-.48,0-.72,0-1.17,0-2.33,0-3.5,0-.41.06-.82.08-1.23,0-.21,0-.43,0-.64,0-.4,0-.8.07-1.2l.06-2c.05-1.41-.05-2.81,0-4.21,0-1,.07-2,.09-3,0-.81,0-1.62,0-2.43a.81.81,0,0,0,0-.22,5.06,5.06,0,0,1-.07-1.86,5.33,5.33,0,0,0-.08-1,1.91,1.91,0,0,1,0-.79,1,1,0,0,0,0-.47,7.3,7.3,0,0,1-.07-1.4c-.05-.54,0-1.09,0-1.63,0-.84,0-1.67-.06-2.51s0-1.58,0-2.37c0-.22,0-.43,0-.65,0-.92,0-1.84,0-2.76,0-.46,0-.92,0-1.38,0-.78,0-1.56.07-2.33,0-.31.12-.62.15-.93a7.93,7.93,0,0,0,0-1.09c0-.46-.09-.92-.16-1.37s-.14-.79-.2-1.18a3.17,3.17,0,0,1,0-.44c0-.67,0-1.35,0-2a9.7,9.7,0,0,0-.11-1.42c0-.37,0-.75,0-1.12a5.32,5.32,0,0,0,0-.69,3.4,3.4,0,0,1,0-1.19,21.74,21.74,0,0,0,.24-3.12c0-1,0-2,0-2.94s.05-1.93.08-2.9c0-.81,0-1.62.07-2.43,0-.47,0-.95.05-1.42a11.63,11.63,0,0,0-.23-2.35,7.52,7.52,0,0,1,0-.82c0-.41-.05-.82-.07-1.23,0-.56,0-1.12-.06-1.67,0-.24-.08-.49-.07-.73,0-.66.07-1.32.1-2,0-.45,0-.89,0-1.34s-.1-1-.09-1.52.12-1.18.17-1.77.08-1.18.11-1.78a.37.37,0,0,0,0-.18c-.27-.55-.08-1.14-.14-1.72,0,0,0,0,0-.07,0-.78-.05-1.57-.08-2.36,0-.17,0-.34,0-.5.06-.5.13-1,.19-1.48a1.23,1.23,0,0,0,0-.33c0-.54,0-1.08-.08-1.62a3,3,0,0,0-.14-.79,3.67,3.67,0,0,1-.13-1.4,5.43,5.43,0,0,0,0-.57.84.84,0,0,1,.08-.38.56.56,0,0,1,.45-.35,8.72,8.72,0,0,1,1-.13c.48,0,1,0,1.45,0a3.87,3.87,0,0,0,.9-.09,7.56,7.56,0,0,1,1.77-.14c.14,0,.27,0,.4,0a2.17,2.17,0,0,0,.36,0,7.86,7.86,0,0,1,1,0,4.57,4.57,0,0,0,1,0,2.59,2.59,0,0,1,.68,0,4.23,4.23,0,0,0,1.23,0l.22,0c.87,0,1.74-.06,2.62-.07,1.4,0,2.81,0,4.22,0,.92,0,1.84.07,2.76.14,1.27.09,2.53.22,3.8.32a2.83,2.83,0,0,0,1.12,0,1.83,1.83,0,0,1,.61,0,2.48,2.48,0,0,0,.72,0,8.63,8.63,0,0,1,2.27,0h1.22c.44,0,.87,0,1.3.06a1.46,1.46,0,0,0,.29,0,13.28,13.28,0,0,1,2.36,0c.8,0,1.6.11,2.4.13l5.46.09c.69,0,1.38.05,2.08.07s1.11,0,1.67,0c.85,0,1.71.06,2.57.05,1.1,0,2.2-.06,3.3-.15a14.46,14.46,0,0,1,2.94.08c.15,0,.31,0,.46,0l1.75.09a17.39,17.39,0,0,0,2.5-.15c.78-.08,1.56-.1,2.35-.14.53,0,1.06-.06,1.59-.07l.9,0c.56,0,1.12,0,1.68-.06a5.47,5.47,0,0,1,1.93.23l1,.26a.92.92,0,0,0,.28.05l1.74-.12h.51l1.45,0c.31,0,.62.07.93.09.6.05,1.21.05,1.81.05.88,0,1.75,0,2.62,0a3.62,3.62,0,0,1,.86.16,7.36,7.36,0,0,0,2.19.28c.25,0,.51,0,.76,0a1.4,1.4,0,0,1,.46.1,1.55,1.55,0,0,0,1.06.06,1.4,1.4,0,0,1,.81,0c.77.26,1.55.48,2.32.73.33.11.65.25,1,.39a10.4,10.4,0,0,0,2.12.58,10.94,10.94,0,0,1,2.38.67,6.09,6.09,0,0,0,2.06.58,1.12,1.12,0,0,1,.34.11,2.7,2.7,0,0,0,.63.12,2.5,2.5,0,0,1,.78.27c.48.22.95.49,1.44.7a9.91,9.91,0,0,1,1.8.93c.46.31,1,.55,1.45.82l.47.29c.34.18.68.36,1,.53.05,0,.12,0,.16.07a5.94,5.94,0,0,1,1.3,1,1.82,1.82,0,0,0,.31.31c.39.36.79.72,1.16,1.1a9.37,9.37,0,0,1,.59.78,7.42,7.42,0,0,0,.49.62,1.36,1.36,0,0,1,.37.66,2,2,0,0,0,.76,1.21,5.19,5.19,0,0,1,1.26,1.3,2.76,2.76,0,0,0,.58.55,2.1,2.1,0,0,1,.58.74,3.45,3.45,0,0,0,1,1.31,1.61,1.61,0,0,1,.5.83,19,19,0,0,0,.95,2.75c.13.31.2.65.31,1s.31.83.46,1.26c.08.21.12.44.19.65a6.11,6.11,0,0,0,.36.87,5,5,0,0,1,.49,1.81q.06.41.15.81c.07.35.16.7.23,1.06s.11.76.18,1.14a4.92,4.92,0,0,1,.09,1.15c0,.52,0,1,0,1.56s-.06,1-.1,1.52c0,0,0,.08,0,.11,0,.44-.07.87-.11,1.3a3,3,0,0,0,.09,1.16,11.18,11.18,0,0,1,.21,1.29,3.84,3.84,0,0,1,.06.76c0,.34-.09.69-.12,1,0,.19,0,.38,0,.58s0,.5-.05.76a4,4,0,0,0-.05.5,8.85,8.85,0,0,1-.32,2.29c-.09.32-.24.63-.36.94s-.17.46-.25.69c-.27.76-.51,1.54-.8,2.29a10.74,10.74,0,0,1-.58,1,3.45,3.45,0,0,0-.45.9,5.74,5.74,0,0,1-.59,1.19c-.22.5-.43,1-.65,1.51s-.33.77-.52,1.15a6.21,6.21,0,0,0-.39.65,4.62,4.62,0,0,1-1,1.49.52.52,0,0,1-.16.14,6.82,6.82,0,0,1-1,.48,2.38,2.38,0,0,0-.83.63c-.31.31-.6.63-.9.95s-.41.41-.59.63a7.89,7.89,0,0,1-1.49,1.21,1.73,1.73,0,0,0-.25.21,4.53,4.53,0,0,1-1.37,1.13,10.75,10.75,0,0,0-1.89,1.4c-.22.21-.49.36-.7.58a7.46,7.46,0,0,1-1.51,1.23,8.09,8.09,0,0,0-.76.67,5.18,5.18,0,0,1-1.11.81A1.47,1.47,0,0,0,324.09,569.34Z"/></g><g id="SPLINE-9" data-name="SPLINE"><path class="cls-2" d="M262.94,583.36v0l-1.19.11c-.28,0-.31.06-.28.34s.06.58.07.87a8.05,8.05,0,0,0,0,1.7v.07l-.09,1.6c0,.27-.07.55-.09.82s0,.77,0,1.16-.06.72-.06,1.08.06.75.08,1.12,0,.55,0,.83.11.73.15,1.1,0,.73.06,1.09a6.51,6.51,0,0,1-.09,1.87,5.46,5.46,0,0,0,0,.57c0,.66,0,1.31,0,2,0,.26,0,.52,0,.78a6.83,6.83,0,0,0,0,1.63v0c0,.29,0,.58,0,.87s0,.31,0,.47q0,.6,0,1.2c0,.67,0,1.34,0,2s0,1.08.07,1.63a11.11,11.11,0,0,1,.07,1.16c0,.8-.13,1.61-.2,2.41a7.67,7.67,0,0,0-.08,1.66c.06.45,0,.91.05,1.37,0,.72.07,1.45.1,2.17a6.05,6.05,0,0,0,.1,1.59,1.08,1.08,0,0,1,0,.36c0,.23,0,.46,0,.69a3.65,3.65,0,0,1,.07.46c0,.79,0,1.59,0,2.38,0,.26.12.46.36.47a8.35,8.35,0,0,0,1,0,2.46,2.46,0,0,0,.46-.08l.69-.15c.05,0,.1,0,.14,0a1.91,1.91,0,0,0,.79,0,6.12,6.12,0,0,1,1.48,0,11.17,11.17,0,0,1,1.71.24h0c.3,0,.6,0,.9,0s.42,0,.64,0c.6,0,1.2,0,1.81,0,.43,0,.87-.08,1.3-.09.2,0,.41.06.61.07.76,0,1.53.1,2.29.13a4.39,4.39,0,0,0,.72-.07,2.63,2.63,0,0,1,.67-.09,6.33,6.33,0,0,0,1.63-.08,4.26,4.26,0,0,1,1.38,0c.12,0,.26,0,.4,0a2.43,2.43,0,0,1,.95.13,1.85,1.85,0,0,0,.78.16l.54,0c.25,0,.5.17.75,0h.07a1.51,1.51,0,0,0,.6,0c.51,0,1,0,1.55,0s1.26-.06,1.89-.1c.92-.07,1.85-.13,2.78-.22a22.39,22.39,0,0,0,2.44-.24,7.49,7.49,0,0,1,2-.26,2.52,2.52,0,0,0,.54-.08,3.86,3.86,0,0,1,.74-.14,4.78,4.78,0,0,0,1.14-.2l.54-.09,1.48-.19a2.55,2.55,0,0,1,.39,0,13.29,13.29,0,0,0,1.89-.09,10.52,10.52,0,0,1,1.26-.08c.46,0,.91-.07,1.36-.12s.77-.11,1.15-.17a10.56,10.56,0,0,0,1.49-.27,16.82,16.82,0,0,0,1.81-.75c.54-.25,1.07-.52,1.59-.8.34-.18.66-.4,1-.6a5.68,5.68,0,0,0,1.38-1.16,16.35,16.35,0,0,0,1.7-2.18c0-.06.1-.1.14-.16a1.65,1.65,0,0,0,.27-.38c.26-.59.6-1.15.9-1.73l.23-.33.87-1.25a2,2,0,0,0,.2-.38c.14-.39.27-.78.38-1.18s.16-.78.25-1.17a7.86,7.86,0,0,1,.19-.84,3,3,0,0,0,.18-1.21,1.55,1.55,0,0,1,0-.43,2.12,2.12,0,0,0,0-1,5.67,5.67,0,0,1-.29-1.74.88.88,0,0,0,0-.32,3.69,3.69,0,0,1,0-1.62,4,4,0,0,0-.19-2,5.87,5.87,0,0,1-.32-2,3.39,3.39,0,0,0-.23-1.43c-.36-.76-.59-1.59-.94-2.36a22,22,0,0,0-1.21-2.31,13.07,13.07,0,0,0-1.18-1.51c-.21-.26-.48-.48-.69-.74a7.73,7.73,0,0,0-1.63-1.55c-.49-.32-1-.61-1.52-.92-.28-.17-.54-.36-.81-.53l-.35-.2a8.51,8.51,0,0,0-1.75-.9c-.05,0-.1-.08-.15-.1a4.09,4.09,0,0,0-1-.3,2.11,2.11,0,0,1-.72-.17,5.13,5.13,0,0,0-2-.36c-.19,0-.38,0-.57,0s-.41,0-.61,0a6.44,6.44,0,0,0-.75,0,2.57,2.57,0,0,1-1.17-.18,1.13,1.13,0,0,0-.32,0,1.76,1.76,0,0,1-.46,0,3.48,3.48,0,0,0-1.43-.11,8.77,8.77,0,0,1-1.15-.09l-1.44-.17-.8-.07c-.17,0-.33,0-.5,0h-3c-.38,0-.75,0-1.12,0a6.35,6.35,0,0,0-1.63,0,1.59,1.59,0,0,1-.46-.08l-.3-.09a4.84,4.84,0,0,0-1.52,0,4.45,4.45,0,0,1-1,0,7.23,7.23,0,0,0-1.74,0,4.48,4.48,0,0,1-1.46-.08.72.72,0,0,0-.21,0c-.31,0-.62,0-.93,0s-.89-.09-1.33-.09-.82.07-1.23.08c-.56,0-1.13,0-1.7,0s-1.22.12-1.84.07a13.18,13.18,0,0,1-2.17-.14.41.41,0,0,0-.33,0,.89.89,0,0,1-.91.19,5.21,5.21,0,0,0-1.72.14,3.4,3.4,0,0,0-.46.09,4.5,4.5,0,0,1-1.16,0l-1.48-.14c-.4-.05-.81-.13-1.22-.14C264.22,583.3,263.58,583.34,262.94,583.36Z"/></g><g id="SPLINE-10" data-name="SPLINE"><path class="cls-2" d="M261.14,562l.49,0,.69.06a2.22,2.22,0,0,0,.72.06,5.63,5.63,0,0,1,1.23,0c.22,0,.43,0,.65,0l2.4,0h.58c.53,0,1.06-.08,1.6-.08s1,0,1.52,0,1.25,0,1.88,0,1.14,0,1.71,0a7.06,7.06,0,0,1,1.3,0,1.46,1.46,0,0,0,.29,0l2,0a2.33,2.33,0,0,1,.65,0,1.91,1.91,0,0,0,.89,0,3.34,3.34,0,0,1,1.51.06,3.06,3.06,0,0,0,1,.09,11.09,11.09,0,0,1,1.63,0,14.53,14.53,0,0,0,1.48.06l.83,0a7.66,7.66,0,0,0,.83,0c.42,0,.84-.06,1.26-.09a3.53,3.53,0,0,1,.79,0,8.78,8.78,0,0,0,1.92-.07,8.18,8.18,0,0,1,1-.1,7,7,0,0,0,1.3,0,6.26,6.26,0,0,1,1.56-.08,1.55,1.55,0,0,0,.43,0l1-.14,1.54-.19a4.79,4.79,0,0,0,.77-.17c.36-.12.7-.27,1-.41l1.89-.74c.31-.12.62-.27.94-.38a4.53,4.53,0,0,0,1.34-.62c.29-.21.55-.46.82-.69l1-.82c.44-.34.86-.71,1.32-1a2,2,0,0,0,.6-.62c.24-.39.49-.78.72-1.17a4.73,4.73,0,0,0,.2-.47,5.25,5.25,0,0,1,.5-1c.41-.56.9-1.07,1.35-1.61a4.77,4.77,0,0,0,.48-.63c.27-.46.51-.93.76-1.4,0,0,0-.07,0-.1.31-.65.25-1.38.5-2,0,0,0-.1,0-.15,0-.47-.07-.94-.06-1.41,0-.83.08-1.66.12-2.49a2.18,2.18,0,0,0,0-.51c-.09-.45-.2-.9-.29-1.35a10,10,0,0,0-.22-1.06,6.93,6.93,0,0,0-.5-1.28c-.23-.45-.4-.95-.62-1.41a1.86,1.86,0,0,0-.57-.68,3.83,3.83,0,0,1-.59-.67c-.08-.1-.12-.24-.21-.34-.27-.31-.57-.59-.82-.92-.45-.58-1-1.11-1.4-1.71s-1.16-1.33-1.73-2a2.37,2.37,0,0,0-1.43-.78,4.73,4.73,0,0,1-1.56-.49c-.55-.33-1.09-.68-1.63-1a5.11,5.11,0,0,1-.71-.51,2.8,2.8,0,0,0-1.63-.61,3.82,3.82,0,0,1-.75-.14,4.8,4.8,0,0,0-1.68-.19,8.64,8.64,0,0,1-1.44-.09,1.32,1.32,0,0,0-.28,0,11.76,11.76,0,0,1-1.34-.08c-.43-.09-.86-.08-1.28-.13a1.13,1.13,0,0,0-.26,0l-1.81.06a4,4,0,0,0-1,0,10.9,10.9,0,0,1-1.49.21.55.55,0,0,1-.22,0,3.34,3.34,0,0,0-1.22-.06,2.29,2.29,0,0,1-.82-.11,1.61,1.61,0,0,0-.54,0,2.66,2.66,0,0,1-.28,0c-.6-.08-1.21-.2-1.82-.25a7.46,7.46,0,0,0-2.45,0,2,2,0,0,1-.42.06l-1.46,0a7.71,7.71,0,0,1-1.73-.06,4.2,4.2,0,0,0-.87,0l-1.53,0c-.72,0-1.43,0-2.14.11a12.34,12.34,0,0,1-1.36,0c-.55,0-1.1,0-1.66,0-.4,0-.81,0-1.22,0-.26,0-.53,0-.79,0l-2.72.13c-.27,0-.55,0-.83,0l-1.27.07-.61,0c0,.22,0,.4,0,.58,0,.61.11,1.21.15,1.81a12.2,12.2,0,0,0,.06,2.09v0c0,.43,0,.86-.05,1.29,0,.74-.11,1.47-.14,2.21a10.73,10.73,0,0,0,0,2.47,6.45,6.45,0,0,1,0,1.7,6.32,6.32,0,0,0,0,.87c0,.86.1,1.72.13,2.58a31.77,31.77,0,0,1-.13,3.52,8.18,8.18,0,0,0,0,1c0,.59,0,1.18,0,1.77s.08,1.18.08,1.77a9.24,9.24,0,0,0,.06,1,5.42,5.42,0,0,1,0,.57c0,.1,0,.2,0,.29,0,.46,0,.92,0,1.38s-.07.83-.06,1.24c0,1.06.13,2.13.16,3.19,0,.59,0,1.19,0,1.78C261.19,561.37,261.16,561.66,261.14,562Z"/></g></g><g id="Layer_5_U_00A0Image" data-name="Layer 5_U+00A0Image"><g id="SPLINE-11" data-name="SPLINE"><path class="cls-1" d="M408.6,647.7l-.61,0a10.86,10.86,0,0,1-2.13-.06,10,10,0,0,0-2.32-.07,9.66,9.66,0,0,0-1.08,0c-.51.11-1,.11-1.54.18a2.13,2.13,0,0,1-.75-.05,4,4,0,0,0-1.33-.1.73.73,0,0,1-.25,0,3.59,3.59,0,0,0-1.17-.19,1.22,1.22,0,0,1-.4-.15.62.62,0,0,0-.47-.06,3,3,0,0,1-1.5.08,11.2,11.2,0,0,0-1.79-.26c-.54-.07-1.06-.25-1.59-.36l-1.66-.37c-.52-.12-1-.25-1.55-.39-.33-.09-.65-.21-1-.32s-.5-.19-.74-.28l-.27-.11-1.53-.46c-.34-.11-.66-.25-1-.36a1.22,1.22,0,0,0-.42-.09,2,2,0,0,1-1.13-.31c-.47-.28-1-.48-1.48-.73s-.84-.47-1.26-.71l-.71-.42c-.21-.13-.39-.29-.6-.4-.45-.26-.78-.67-1.26-.91a9,9,0,0,1-1-.68c-.39-.27-.78-.52-1.19-.76s-.92-.51-1.39-.76l-1-.49a9.37,9.37,0,0,1-1.86-1.26c-.51-.42-1-.86-1.53-1.26a4.28,4.28,0,0,1-1.38-1.52,4.83,4.83,0,0,0-.58-.84c-.54-.7-1.1-1.38-1.65-2.07l-.18-.19-.67-.81a2.61,2.61,0,0,0-.19-.27c-.47-.54-1-1.08-1.43-1.64-.23-.27-.4-.6-.64-.87a12.48,12.48,0,0,1-1.35-2c-.25-.45-.47-.9-.73-1.34s-.43-.59-.61-.9-.43-.86-.66-1.29-.61-1.08-.89-1.63c-.47-.91-1-1.83-1.38-2.76a13.78,13.78,0,0,1-.45-1.42,6.18,6.18,0,0,0-.26-.72,13.54,13.54,0,0,1-.75-2.72c-.1-.43-.22-.85-.33-1.27a4.29,4.29,0,0,1-.13-.6,13.32,13.32,0,0,0-.44-1.76c-.2-.92-.43-1.84-.66-2.76-.07-.27-.19-.52-.25-.79-.24-1-.48-2-.69-3-.17-.77-.32-1.55-.46-2.32-.05-.31-.05-.63-.07-.95-.11-2.08-.24-4.17-.3-6.26a16.6,16.6,0,0,1,.18-2.21,20.43,20.43,0,0,0,.23-2.93c0-.6,0-1.21,0-1.81s0-.94.06-1.41a.88.88,0,0,1,0-.29,2.43,2.43,0,0,0,.13-1.07,13.3,13.3,0,0,1,.09-1.55c.09-.54.27-1.06.41-1.58.05-.18.07-.36.13-.53.21-.59.44-1.17.64-1.77.1-.29.16-.6.24-.9,0-.06,0-.12,0-.18a12,12,0,0,0,.46-1.18,7.94,7.94,0,0,0,.15-.85,3.38,3.38,0,0,1,.18-.62c.18-.51.37-1,.57-1.52s.38-1,.6-1.48.38-.68.54-1,.27-.64.4-1c.21-.51.41-1,.61-1.55a2.28,2.28,0,0,0,.15-.44,5.34,5.34,0,0,1,.74-1.69c.33-.54.7-1,1-1.58l.17-.27c.36-.55.73-1.09,1.08-1.64.22-.34.43-.68.62-1,.29-.53.58-1.06.84-1.6a13.52,13.52,0,0,1,1.2-1.87s0,0,0,0c.39-.16.5-.54.68-.86a1,1,0,0,1,.51-.54c.15-.05.25-.22.36-.35a6.78,6.78,0,0,1,1-1.05,2.6,2.6,0,0,0,.25-.31l.8-1,.05,0c.37-.13.53-.47.75-.76a18.34,18.34,0,0,1,1.52-1.66c.42-.44.84-.88,1.26-1.3s.94-1,1.44-1.39a7,7,0,0,1,.93-.69c.53-.36,1.08-.69,1.61-1,.29-.2.56-.42.85-.63l2.47-1.72a1,1,0,0,1,.44-.17,3.78,3.78,0,0,0,1.46-.76,13.1,13.1,0,0,1,1.34-.7,14.44,14.44,0,0,1,1.93-.51c.58-.16,1.16-.34,1.73-.53.29-.09.55-.27.84-.33.6-.13,1.21-.2,1.82-.32a4.56,4.56,0,0,0,1.07-.33,5.8,5.8,0,0,1,1.79-.54,1.92,1.92,0,0,0,.81-.29,1.69,1.69,0,0,1,.88-.28l7.13-.38,5.24-.29c.4,0,.8,0,1.2,0s.79,0,1.19,0c.6,0,1.19.05,1.78.11s1.2.16,1.8.24c.22,0,.44,0,.65,0a14.84,14.84,0,0,1,2,.3,4.64,4.64,0,0,0,.65.11,7.31,7.31,0,0,1,1.56.31c.71.3,1.48.27,2.18.56a7.52,7.52,0,0,0,2.5.39,4.32,4.32,0,0,1,1.49.28,12.35,12.35,0,0,0,1.34.44l.38.13.52.14a3.31,3.31,0,0,1,.45.12,3.59,3.59,0,0,1,1.09.45,1.21,1.21,0,0,0,.2.09,11,11,0,0,1,2.44,1.24c.52.37,1.1.67,1.64,1,.3.18.59.39.88.57a1.85,1.85,0,0,0,.47.27,6.68,6.68,0,0,1,1.46.8c.32.2.59.47.91.66a5.22,5.22,0,0,1,1.14,1,2,2,0,0,0,.23.18c.39.28.79.56,1.17.86a1.59,1.59,0,0,0,.57.31.81.81,0,0,1,.39.23,12.74,12.74,0,0,0,1.55,1.48c.51.5,1,1,1.54,1.49s1.12,1.14,1.65,1.73a10.37,10.37,0,0,1,.63.85,3.47,3.47,0,0,0,.44.57,8.19,8.19,0,0,1,.91,1.13,9.38,9.38,0,0,0,1.12,1.38,4.6,4.6,0,0,1,.93,1.45,3,3,0,0,0,.49.71,8,8,0,0,1,.84,1.08s0,0,0,.07a6.37,6.37,0,0,1,.87,1.52l.08.12c.34.44.7.87,1,1.33a5.56,5.56,0,0,1,.46.87,9,9,0,0,1,.7,1.87,6,6,0,0,0,.36,1c.29.65.59,1.28.88,1.92a2.67,2.67,0,0,1,.15.48c.09.35.16.71.27,1.06a20.53,20.53,0,0,1,.73,2.66c.1.56.17,1.13.29,1.69s.27,1.08.41,1.62c.08.26.17.53.24.8s.24.81.33,1.22a5.7,5.7,0,0,1,.13,1,8,8,0,0,0,.36,1.74,2.8,2.8,0,0,1,.06.28l.15,1.78c0,.36,0,.72.06,1.08s.08,1,.14,1.48c.12,1,.22,2,.27,2.93.07,1.6.16,3.2.23,4.8,0,.14,0,.27,0,.4,0,.5,0,1,0,1.49,0,.87,0,1.75,0,2.62a15.54,15.54,0,0,1-.28,2.35c0,.25,0,.5-.08.75-.12.75-.23,1.49-.37,2.23a12.74,12.74,0,0,1-.34,1.63,7.91,7.91,0,0,0-.23,2,6.18,6.18,0,0,1-.29,1.42,1.29,1.29,0,0,0-.05.21c0,.55,0,1.11-.11,1.66a8.77,8.77,0,0,1-.29,1.12l-.23.8c0,.14-.06.29-.11.42a20.5,20.5,0,0,0-.52,2.19,2.45,2.45,0,0,1-.2.51c-.5,1-1,2-1.5,3.07a12.28,12.28,0,0,0-.53,1.43,2.52,2.52,0,0,1-.31.69,6.16,6.16,0,0,0-.34.68c-.5,1-1,2-1.5,3a3.34,3.34,0,0,1-.68.89,3.69,3.69,0,0,0-.88,1.19,3.15,3.15,0,0,1-.89,1,12.57,12.57,0,0,0-1.47,1.45c-.62.8-1.29,1.58-1.95,2.35-.29.35-.63.66-.93,1-.54.6-1.07,1.22-1.6,1.83l-.59.69a5.87,5.87,0,0,1-1.52,1.24,2.1,2.1,0,0,0-.73.69,1.75,1.75,0,0,1-.65.62,2.37,2.37,0,0,0-.7.56,2.77,2.77,0,0,1-.67.56,1.74,1.74,0,0,0-.52.49,3.38,3.38,0,0,1-1.37,1.11c-.27.12-.5.29-.76.43s-.68.32-1,.5l-1.44.76c-.13.07-.28.08-.4.14s-.39.23-.58.36-.39.29-.6.41-.66.3-1,.49a2.23,2.23,0,0,1-1,.33,1.9,1.9,0,0,0-1.06.42,3.27,3.27,0,0,1-.84.41,5.92,5.92,0,0,0-1.16.41l-.1,0-1.91.45-.5.11-.89.15-.73.21a1.78,1.78,0,0,1-.38.1,4.51,4.51,0,0,0-1.49.31,9.27,9.27,0,0,1-2.67.44l-5.13.28c-.16,0-.32,0-.48,0Z"/></g><g id="SPLINE-12" data-name="SPLINE"><path class="cls-2" d="M379.89,598.1h0a5.61,5.61,0,0,0,0,.58c.06.71.11,1.42.21,2.13s.29,1.2.39,1.81.16,1.37.24,2.06a2.57,2.57,0,0,0,.51,1.44.81.81,0,0,1,.13.3,3.05,3.05,0,0,1,.2.76,4.22,4.22,0,0,0,.33,1.06,8.85,8.85,0,0,1,.34,1.22,6.21,6.21,0,0,0,.35,1.28,10.11,10.11,0,0,0,.76,1.46c.31.49.56,1,.84,1.53.17.32.32.65.51,1,.33.56.69,1.11,1,1.66l.92,1.38.13.13a6.73,6.73,0,0,1,.79,1,4.69,4.69,0,0,0,.83,1c.53.54,1.12,1,1.68,1.54.33.3.66.61,1,.89s.91.72,1.38,1.05a4.82,4.82,0,0,0,1.76.86.94.94,0,0,1,.45.21,1.62,1.62,0,0,0,.79.33,1.73,1.73,0,0,1,.69.31,3.09,3.09,0,0,0,.54.29c.13.06.27.08.41.14a7,7,0,0,0,1.4.48,4.76,4.76,0,0,1,.84.24,17.84,17.84,0,0,0,2.5.6.74.74,0,0,0,.33,0,2.56,2.56,0,0,1,1.1.07,3.28,3.28,0,0,0,1.43,0,.74.74,0,0,1,.36,0,1.14,1.14,0,0,0,.75,0,.8.8,0,0,1,.31,0,1.36,1.36,0,0,0,1.07-.25.39.39,0,0,1,.16-.07l1.18-.16a3.5,3.5,0,0,0,.56-.13,1.66,1.66,0,0,1,1-.15.52.52,0,0,0,.21,0l.74-.17c.3-.08.6-.19.9-.26a6.39,6.39,0,0,0,1.91-.53,8,8,0,0,0,.76-.41c.14-.1.29-.17.43-.27a10.09,10.09,0,0,0,.94-.61c.54-.44,1-.9,1.57-1.35.32-.27.63-.54.95-.79a15.88,15.88,0,0,0,2.12-1.5c.22-.23.51-.37.69-.65s.31-.36.46-.56l.82-1.14c.08-.12.17-.24.26-.35l.6-.73c.09-.11.17-.23.26-.35a3.17,3.17,0,0,0,.68-1.31,7,7,0,0,1,.7-1.93c.08-.18.25-.33.33-.52a19.91,19.91,0,0,0,.79-2A12.29,12.29,0,0,0,427,608a0,0,0,0,1,0,0,4.32,4.32,0,0,0,.24-1.42c.05-.67.17-1.32.28-2a2.82,2.82,0,0,0,.09-1.19.52.52,0,0,1,0-.21c.08-.33.18-.66.24-1,.16-.79.28-1.6.46-2.38a5,5,0,0,0,.11-1.27,2.65,2.65,0,0,1,0-.93.94.94,0,0,0,0-.29c0-.21,0-.41,0-.62a6.6,6.6,0,0,0,.07-1.08,11.21,11.21,0,0,1-.09-1.74,2.79,2.79,0,0,0-.08-.86,1.38,1.38,0,0,1,0-.78,1,1,0,0,0,0-.29c-.1-.77-.22-1.53-.33-2.3,0-.25-.08-.5-.1-.75,0-.7-.06-1.41-.1-2.11,0-.35-.09-.7-.1-1a17.6,17.6,0,0,0-.36-2.29c0-.24-.1-.47-.14-.71-.16-.75-.31-1.49-.46-2.24a3.4,3.4,0,0,0-.07-.46c-.17-.44-.33-.89-.54-1.32-.31-.61-.6-1.23-.85-1.86-.17-.44-.32-.89-.53-1.31a6.1,6.1,0,0,0-.64-1.4c-.06-.08-.05-.21-.08-.31a7.32,7.32,0,0,0-.23-.76c-.17-.42-.4-.82-.55-1.25a6.93,6.93,0,0,0-.56-1.2,1.73,1.73,0,0,0-.21-.25,6.15,6.15,0,0,1-.6-.77,7.43,7.43,0,0,0-1.4-1.88c-.79-.74-1.61-1.44-2.41-2.15a4,4,0,0,0-.54-.48c-.76-.46-1.52-.91-2.29-1.33a10.24,10.24,0,0,0-2.05-.93,1.94,1.94,0,0,1-.53-.23,3.57,3.57,0,0,0-1-.43c-.23-.06-.45-.19-.67-.27l-.93-.3a4.24,4.24,0,0,0-1.48-.45.19.19,0,0,1-.1,0c-.32-.26-.73-.19-1.08-.33a3.63,3.63,0,0,0-.88-.19,12.79,12.79,0,0,1-1.35-.25l-1.21-.2a12.75,12.75,0,0,0-1.37-.15,10.78,10.78,0,0,0-1.25.12.33.33,0,0,0-.14,0,1.21,1.21,0,0,1-.87.16,2.08,2.08,0,0,0-.61,0c-.56.09-1.11.2-1.67.32-.2,0-.42.18-.59.14a.82.82,0,0,0-.62.12,4,4,0,0,1-1.3.43l-.24.08a6,6,0,0,0-1.69.83s-.11,0-.16.08c-.83.45-1.68.86-2.47,1.38a9.59,9.59,0,0,0-2.1,1.71c-.24.28-.49.54-.72.82-.45.54-.87,1.1-1.32,1.64q-.46.54-1,1c-.34.35-.46.89-1,1.09l0,0-.59.91c-.19.28-.4.54-.58.82a2.3,2.3,0,0,0-.35.7,4.34,4.34,0,0,1-.4,1.13c-.12.22-.28.42-.38.65s-.18.6-.31.89a7,7,0,0,0-.44,1.63,3.91,3.91,0,0,1-.24.68,11.64,11.64,0,0,0-.44,1.11,9.27,9.27,0,0,1-.49,1.63.66.66,0,0,0,0,.25c-.1.45-.19.9-.29,1.34a1.79,1.79,0,0,0-.08,1.14c0,.06,0,.14,0,.21a12.51,12.51,0,0,0-.36,2.19,2.78,2.78,0,0,1-.11.46c0,.11,0,.23,0,.35,0,.28,0,.56,0,.83a15,15,0,0,0-.14,2.32,3.09,3.09,0,0,1,0,.43,8.11,8.11,0,0,0,.09,2,4.29,4.29,0,0,1,0,1.34,9.8,9.8,0,0,0-.12,1.54c0,.57,0,1.15.07,1.73,0,.11,0,.22,0,.33,0,.28.08.57.1.86S379.89,597.91,379.89,598.1Z"/></g></g><g id="Layer_7_U_00A0Image" data-name="Layer 7_U+00A0Image"><g id="SPLINE-13" data-name="SPLINE"><path class="cls-1" d="M527.3,567.57A1.48,1.48,0,0,1,526,568a6.81,6.81,0,0,0-1.63.31,1.58,1.58,0,0,1-.43.05c-.45,0-.89-.08-1.33-.15-.61-.1-1.21-.22-1.81-.36a1.92,1.92,0,0,0-.86,0,10,10,0,0,1-1.21.25c-.48,0-1,0-1.45,0-.71,0-1.42.06-2.13,0s-1.35.27-2,.32l-1.52.11-1.16.07a1.55,1.55,0,0,1-.43,0,3.77,3.77,0,0,0-1.53.17c-.17,0-.35.08-.53.12s-.64.15-1,.2c-.63.11-1.27.19-1.9.28a3.86,3.86,0,0,0-1.39.53,5.18,5.18,0,0,1-.91.46,4.38,4.38,0,0,0-1.22.71c-.48.38-1,.78-1.45,1.15a16.37,16.37,0,0,1-1.8,1.29l-.26.2a12.09,12.09,0,0,0-1.37,1.4c-.46.58-1,1.12-1.41,1.71s-.82,1.14-1.22,1.71a.47.47,0,0,0-.06.09,16.12,16.12,0,0,1-.58,1.56,8.62,8.62,0,0,1-1,1.93c-.27.41-.53.83-.79,1.26a5.09,5.09,0,0,0-.22.54l-.27.59c0,.1-.11.19-.15.29-.36.92-.73,1.83-1.06,2.75-.16.44-.23.92-.37,1.37a17.08,17.08,0,0,0-.39,2.36c0,.21-.11.42-.15.64a5.7,5.7,0,0,0,0,1.37,6.73,6.73,0,0,1-.23,2.56,10.46,10.46,0,0,0-.24,1.14,15.89,15.89,0,0,0-.32,4.51,5.94,5.94,0,0,1-.06.94c-.09.79-.21,1.56-.27,2.35a8,8,0,0,0,.15,3,5.64,5.64,0,0,1,.06,1.88c0,.19,0,.38,0,.58,0,.56-.06,1.13-.07,1.7a5.54,5.54,0,0,0,.07.57,3.81,3.81,0,0,1,.07.47c0,.63,0,1.26-.07,1.89a1.06,1.06,0,0,0,0,.25,12,12,0,0,1,.24,2.31c0,.6,0,1.19,0,1.79s.06,1.18.08,1.77c0,.33,0,.66,0,1a26.27,26.27,0,0,0,0,3.2,6.58,6.58,0,0,1-.05.88l-.09,2.79c0,.83,0,1.65-.12,2.47s-.09,1.72-.12,2.57,0,1.82,0,2.73-.06,1.67-.09,2.5c0,.5-.05,1-.05,1.49a1.62,1.62,0,0,0,.12.57,1.18,1.18,0,0,1,.06.67.56.56,0,0,0,0,.22c0,.48.08,1,.11,1.44s0,.73,0,1.09,0,.63,0,1a4,4,0,0,1-.19,1.46c-.11.32-.17.38-.5.4a10.11,10.11,0,0,1-1.23,0,2.41,2.41,0,0,0-1.49.22,1,1,0,0,1-.64,0,3.11,3.11,0,0,0-.86-.1c-.36,0-.72,0-1.09,0s-.45,0-.68.06H481c-.51,0-1-.07-1.52-.06s-.89.09-1.33.13h-.37a3.59,3.59,0,0,0-.47,0,12.31,12.31,0,0,1-3,.08,7.79,7.79,0,0,0-1.08,0,3,3,0,0,1-1.29-.11,3.34,3.34,0,0,0-1.93-.08,1.94,1.94,0,0,1-.72,0c-.59-.07-1.17-.18-1.76-.25a2.36,2.36,0,0,0-.65,0,14.18,14.18,0,0,1-3.12.12,6.31,6.31,0,0,0-1.3.08,6.31,6.31,0,0,1-1.23,0c-.51,0-1-.11-1.55-.18,0-.06,0-.15,0-.24,0-.7-.09-1.4-.12-2.1s0-1.14,0-1.71c0-.18-.05-.36-.05-.54,0-.7,0-1.4,0-2.1s0-1.31,0-2c0-1,0-1.94,0-2.9,0-.66,0-1.31-.05-2a8.06,8.06,0,0,1,.06-1.63,3.71,3.71,0,0,0,0-1.37c-.06-.28-.11-.57-.19-.85a6.54,6.54,0,0,1-.16-2.16c0-.34.11-.67.12-1s0-.94,0-1.41c0-.32,0-.63,0-.94s.05-.53.06-.8.06-.75.06-1.12,0-.73-.07-1.09a1.15,1.15,0,0,1,.14-.7.41.41,0,0,0,0-.31,5.07,5.07,0,0,1,0-2,9.17,9.17,0,0,0,.07-1.48,2.88,2.88,0,0,1,.06-.72,2.36,2.36,0,0,0,0-.46c0-.07,0-.14,0-.21,0-.67,0-1.33,0-2,0-.26,0-.53,0-.79.05-.86.1-1.72.17-2.58.15-1.86,0-3.71,0-5.57,0-.35,0-.7.05-1,.06-.9.14-1.8.16-2.69a10.15,10.15,0,0,0-.14-1.34c0-.27-.08-.55-.11-.83,0-.44-.06-.89-.07-1.33s0-1.12,0-1.67c0-1.09,0-2.19,0-3.28,0-.26,0-.53,0-.79a2.48,2.48,0,0,0,0-.47c0-.26-.06-.53-.1-.79a5,5,0,0,1,.12-1.22c0-.56.11-1.12.11-1.67s-.07-1.23-.1-1.85a3.87,3.87,0,0,1,0-1.27,1.74,1.74,0,0,0,0-.32.57.57,0,0,1,0-.18c0-.4,0-.81,0-1.21s.07-.68.08-1c0-.54,0-1.09,0-1.63,0-.14,0-.29,0-.43a6,6,0,0,0-.06-.61,3.17,3.17,0,0,1,0-1.5,2.28,2.28,0,0,0,.05-.64c0-.22,0-.45,0-.67,0-.06,0-.12,0-.18-.08-.5-.12-1-.24-1.5a1.67,1.67,0,0,1,0-.89,1.85,1.85,0,0,0,0-1.14,1.51,1.51,0,0,1,0-.6,1.22,1.22,0,0,0-.12-.81,1,1,0,0,1,0-.53c0-.51.11-1,.2-1.51a5.82,5.82,0,0,0-.07-2.24,7.44,7.44,0,0,1-.1-1.15c0-.48,0-1-.05-1.42s0-.92,0-1.38c0-.26,0-.51-.06-.76,0-.06,0-.12,0-.18,0-.74,0-1.48.05-2.22a1.62,1.62,0,0,1,0-.22,9.84,9.84,0,0,0,0-1.8,17.61,17.61,0,0,1,.09-3.48,11.64,11.64,0,0,0,.07-1.45c0-.32,0-.63,0-1,0-.62.08-1.25.14-1.88s.13-1.11.2-1.66a1.1,1.1,0,0,0,0-.36,14.28,14.28,0,0,1,0-1.85c0-.53,0-1.06-.06-1.59a.51.51,0,0,1,.48-.52,6.11,6.11,0,0,1,.86.07.87.87,0,0,0,.53,0,1.41,1.41,0,0,1,1.17,0,2.09,2.09,0,0,0,1,.11c.26,0,.53,0,.8,0l1.23,0a6.48,6.48,0,0,1,.76-.06,16.6,16.6,0,0,0,1.73-.16,7.57,7.57,0,0,1,2.28,0s.08,0,.11,0a11,11,0,0,1,2.14.13c.37,0,.75,0,1.12,0s.53,0,.8,0a26,26,0,0,1,2.79.07c.44,0,.89.08,1.33.1.25,0,.49,0,.73,0,.59,0,1.18-.1,1.77-.08a13.58,13.58,0,0,1,1.91.19,12.6,12.6,0,0,0,1.74.09c.39,0,.8,0,1.19,0a.65.65,0,0,1,.64.68.88.88,0,0,0,0,.29,2.63,2.63,0,0,1,.17,1,5.85,5.85,0,0,0,.07.72,18.93,18.93,0,0,1,.05,2.13c0,.48,0,1,0,1.45,0,.64,0,1.28,0,1.92,0,.31.05.63.08.94a1.11,1.11,0,0,1,0,.36,7.21,7.21,0,0,0-.07,2c0,.61,0,1.21,0,1.82s.11,1.2.18,1.8c0,0,0,.09.07.15.19-.21.38-.4.56-.61l.81-.93c.52-.6,1-1.2,1.57-1.81s.87-1.07,1.32-1.59,1.1-1.26,1.69-1.85c.4-.41.88-.75,1.33-1.13s.82-.72,1.26-1,1-.7,1.56-1l.23-.18a2.53,2.53,0,0,1,.84-.56,1.13,1.13,0,0,0,.43-.26c.3-.25.6-.5.88-.77a6.13,6.13,0,0,1,1.55-1.07c.7-.36,1.43-.67,2.11-1.06a6.35,6.35,0,0,1,1.39-.6,1.7,1.7,0,0,0,.61-.32,3.72,3.72,0,0,1,1.25-.57c.5-.17,1-.34,1.52-.49a30.16,30.16,0,0,1,3.49-1c.59-.11,1.15-.32,1.73-.47.43-.12.87-.22,1.31-.3a7.82,7.82,0,0,1,1.18-.18,4.34,4.34,0,0,0,1-.22,3.08,3.08,0,0,1,.61,0c.48,0,.95-.11,1.43-.15.14,0,.29,0,.43,0,1.06,0,2.11,0,3.16.05a6.8,6.8,0,0,0,1,0,17,17,0,0,1,2.14,0,1.53,1.53,0,0,1,.55.17c.07,0,.11.16.12.24,0,.67.08,1.33.1,2a7.26,7.26,0,0,0,.14,1.74,1.83,1.83,0,0,1,0,.47l.12,2.22c0,.22,0,.43,0,.65,0,1.11,0,2.21.06,3.31,0,.83-.1,1.67-.15,2.5a2.8,2.8,0,0,0,0,.4c.06.95.13,1.89.21,2.83.05.57.13,1.13.19,1.7a2.71,2.71,0,0,1,0,.29,21.6,21.6,0,0,0,0,4,6.9,6.9,0,0,1,0,1.7C527.35,566.35,527.34,567,527.3,567.57Z"/></g></g><g id="Layer_8_U_00A0Image" data-name="Layer 8_U+00A0Image"><g id="SPLINE-14" data-name="SPLINE"><path class="cls-1" d="M531.83,655.19a3.6,3.6,0,0,1,1.56-.12,5.84,5.84,0,0,0,.83,0,8.42,8.42,0,0,1,1.81,0c.27,0,.53,0,.8,0l.94,0c.36,0,.72,0,1.08,0a9.73,9.73,0,0,1,2.64,0,6.8,6.8,0,0,0,.9.06l2.11.08a22.45,22.45,0,0,0,2.72,0,5.09,5.09,0,0,1,1.65-.06c.06,0,.12,0,.18,0a6.79,6.79,0,0,1,.9-.05c.92.08,1.85.2,2.77.28.29,0,.58,0,.87,0l2.16.2a5.52,5.52,0,0,0,1.22.05,7.56,7.56,0,0,1,1.16,0,.35.35,0,0,1,.11,0c.34.28.77.49,1,.92.13.28.2.58.32.86s.29.64.46.95a1,1,0,0,1,.21.67.32.32,0,0,0,.17.33,3.37,3.37,0,0,1,.87,1.15,7.84,7.84,0,0,0,.66.86c0,.05.1.08.13.12.31.45.59.91.91,1.36.2.29.44.57.67.85a6.83,6.83,0,0,0,1.86,1.48c.32.18.58.44.9.61.5.26,1,.48,1.54.72l.36.16,1.06.54.94.48a1.44,1.44,0,0,0,.36.15l3.5.85a1.93,1.93,0,0,1,.34.11,1.81,1.81,0,0,0,.92.15c.35,0,.7,0,1.05,0a12.07,12.07,0,0,1,1.59.05,6.82,6.82,0,0,0,1.27-.05c.23,0,.45,0,.68,0h2c.54,0,1.08,0,1.63,0a2.61,2.61,0,0,0,.67-.11,4.92,4.92,0,0,0,1.25-.23.37.37,0,0,1,.21,0,4.77,4.77,0,0,0,1.5-.21,4.48,4.48,0,0,0,.52-.16l1.16-.44a2.67,2.67,0,0,1,.48-.15,9.41,9.41,0,0,0,2.55-1,.64.64,0,0,1,.28-.07,1.55,1.55,0,0,0,.87-.32c.46-.33.94-.65,1.4-1a2.69,2.69,0,0,0,.37-.3c.39-.45.77-.9,1.15-1.36l.91-1.14a3.91,3.91,0,0,0,.3-.41c.43-.63.86-1.26,1.27-1.9a6,6,0,0,0,.62-1.14c.24-.61.55-1.19.84-1.78.18-.38.38-.75.57-1.13a2,2,0,0,0,.13-.42c.16-.73.33-1.45.46-2.19a9.87,9.87,0,0,0,.06-1.22l.06-.87c0-.31.07-.62.1-.94s.06-.45.11-.68c.16-.69.34-1.39.49-2.08.08-.33.12-.67.18-1a.49.49,0,0,0,0-.21,13.33,13.33,0,0,1-.23-2,2.73,2.73,0,0,1,.33-1.6,2.35,2.35,0,0,0,.26-1.4,1.27,1.27,0,0,1,.06-.64,2,2,0,0,0,0-.94c0-.38-.13-.76-.2-1.14s-.17-1.07-.29-1.6-.2-.74-.32-1.17l-.69.61-.53.45a4.42,4.42,0,0,0-.53.44,6.56,6.56,0,0,0-1.11,1.24s0,.09-.09.11c-.49.25-.77.75-1.28,1-.7.33-1.36.74-2.06,1.07a10.62,10.62,0,0,1-1.28.41,1.54,1.54,0,0,0-.48.24,3.68,3.68,0,0,1-1.52.75c-.46.13-.94.22-1.41.34a4.32,4.32,0,0,0-.8.23,1,1,0,0,0-.46.34,3.71,3.71,0,0,1-1.78,1.32,10.91,10.91,0,0,1-1.86.6,20.55,20.55,0,0,0-2.15.67,8.81,8.81,0,0,1-2.16.43,9.93,9.93,0,0,0-1.8.21,8.81,8.81,0,0,1-1.15.14l-1.23.18a5.71,5.71,0,0,1-.83,0,17.44,17.44,0,0,0-2.28.14c-.63.08-1.27.09-1.91.11-.36,0-.73,0-1.09,0-.14,0-.28-.06-.43-.08a1.43,1.43,0,0,0-.5-.06,2.41,2.41,0,0,1-1.38-.18,6.35,6.35,0,0,0-1.6-.34c-.74-.11-1.49-.2-2.24-.29-.3,0-.6,0-.9-.07s-.71-.16-1.06-.25c-.58-.17-1.17-.3-1.74-.52a6.29,6.29,0,0,0-1-.34c-.49-.1-1-.21-1.46-.29a3.24,3.24,0,0,1-1.1-.36,8,8,0,0,0-2.28-.82c-.22,0-.43-.15-.65-.21a5,5,0,0,0-1-.22,5.47,5.47,0,0,1-1.66-.36c-.34-.14-.69-.25-1-.38a1.6,1.6,0,0,1-.49-.24,13.51,13.51,0,0,0-1.69-1c-.21-.13-.4-.3-.6-.45a5.23,5.23,0,0,0-.68-.48,7.26,7.26,0,0,1-.8-.47c-.57-.43-1.19-.79-1.78-1.19-.36-.24-.73-.48-1.07-.75a16.39,16.39,0,0,1-1.35-1.15c-.42-.4-.77-.87-1.15-1.31l-.11-.14c-.34-.36-.69-.71-1-1.1a2.43,2.43,0,0,0-.73-.58,6.63,6.63,0,0,1-.94-.89,4.71,4.71,0,0,1-.71-1c-.34-.5-.72-1-1.08-1.47a1.47,1.47,0,0,1-.24-.4,3.74,3.74,0,0,0-.93-1.23,2.28,2.28,0,0,1-.53-.63,1.06,1.06,0,0,0-.26-.34A6.55,6.55,0,0,1,534,625.5l-.19-.35c-.1-.2-.2-.41-.28-.62s-.28-.72-.44-1.07c-.37-.79-.77-1.57-1.11-2.37a10.56,10.56,0,0,1-.39-1.28c-.06-.19-.17-.38-.22-.57-.18-.71-.36-1.41-.51-2.12-.09-.44-.1-.89-.18-1.33a9.68,9.68,0,0,0-.27-1.06c-.15-.44-.35-.87-.5-1.32s-.37-1.15-.52-1.74c-.12-.42-.18-.85-.28-1.27s-.25-.74-.34-1.12c-.17-.72-.31-1.46-.46-2.19l-.18-.92A6.79,6.79,0,0,1,528,604a.58.58,0,0,0,0-.29,3.32,3.32,0,0,1-.15-1.29,4,4,0,0,0-.08-.58c0-.37-.09-.74-.13-1.11s-.08-.77-.12-1.15a1,1,0,0,1,0-.29,8.37,8.37,0,0,0-.07-2.06c0-.53,0-1.06,0-1.59s0-.93,0-1.39v0c0-.59,0-1.19,0-1.78a11.14,11.14,0,0,1,.17-2,3.51,3.51,0,0,0,0-1,4.83,4.83,0,0,1,.06-1.42,13.76,13.76,0,0,0,.25-1.79c0-.48.24-.9.24-1.37a7,7,0,0,1,.06-.79c0-.22.11-.42.14-.64a18.74,18.74,0,0,1,.62-3.05c.15-.58.23-1.18.36-1.77s.25-1.09.36-1.63c0-.2,0-.41.07-.62.1-.58.19-1.17.32-1.74a7.34,7.34,0,0,1,.33-.89c.09-.27.16-.55.24-.83.17-.58.34-1.16.52-1.73a2.79,2.79,0,0,0,.12-.34,12.1,12.1,0,0,1,.41-1.2,1.13,1.13,0,0,0,.08-.24,3.43,3.43,0,0,1,.52-1.42c.37-.79.77-1.56,1.14-2.35a2.9,2.9,0,0,1,.4-.68,2.8,2.8,0,0,0,.32-.56c.23-.47.44-.95.7-1.4a7.71,7.71,0,0,1,.59-.82c.23-.33.49-.64.7-1a10.82,10.82,0,0,0,1-1.65,2.19,2.19,0,0,1,.31-.44,13.1,13.1,0,0,1,1.74-2.05s.1-.08.12-.14c.21-.51.72-.74,1.09-1.09a6.59,6.59,0,0,0,1.13-1.11,2.65,2.65,0,0,1,.42-.4c.36-.35.71-.69,1.06-1s.82-.85,1.25-1.27c.22-.22.48-.4.72-.61s.68-.58,1-.85c.16-.12.37-.16.52-.29a3.47,3.47,0,0,0,.39-.47,1.23,1.23,0,0,1,.28-.23l1.6-1a2.56,2.56,0,0,0,.48-.39,2.3,2.3,0,0,1,1-.62,1.25,1.25,0,0,0,.37-.21,4,4,0,0,1,.34-.27c.39-.24.78-.48,1.18-.71s.58-.26.84-.42a6.71,6.71,0,0,1,1.29-.49c.48-.18,1-.4,1.44-.6a2.05,2.05,0,0,1,.58-.18,4.34,4.34,0,0,0,1.47-.5,7.37,7.37,0,0,1,1.86-.71,1.4,1.4,0,0,0,.34-.13,2,2,0,0,1,1.19-.23.38.38,0,0,0,.15,0,4.25,4.25,0,0,1,1.18-.09c.52,0,1,0,1.56,0,.24,0,.48-.07.72-.09s.6,0,.91-.06.89-.05,1.33-.11c.6-.09,1.19-.21,1.78-.34.4-.09.8-.22,1.19-.33s.55-.12.82-.16a8.55,8.55,0,0,1,.87-.09,7.55,7.55,0,0,1,2.06.16,4.62,4.62,0,0,1,1.3.43.38.38,0,0,0,.13.06l1.66.24a4.5,4.5,0,0,0,1.86-.15,2,2,0,0,1,1,0l1.89.36c.54.09,1.09.14,1.63.22a1.93,1.93,0,0,1,.47.13,1.42,1.42,0,0,0,1,.19,1.22,1.22,0,0,1,.54,0,7.62,7.62,0,0,1,2,.64,4.51,4.51,0,0,0,1,.3,10.6,10.6,0,0,1,1.67.37l1.13.41a10.8,10.8,0,0,0,1.13.4,8.31,8.31,0,0,0,1,.15.83.83,0,0,1,.32.05c.6.27,1.18.56,1.78.82a11.77,11.77,0,0,0,1.07.52,3.75,3.75,0,0,1,1.1.62,18.65,18.65,0,0,0,2,1.26c.19.1.37.2.54.31l1.37.83c.3.18.6.36.91.53.12.07.25.18.39,0a.42.42,0,0,0,.16-.22,6.84,6.84,0,0,0,.08-.9c0-1.24,0-2.48,0-3.72,0-.35,0-.36.36-.36s.9-.06,1.35-.1,1-.12,1.52-.16c.7,0,1.4-.08,2.1-.09a7,7,0,0,1,.79.08c.23,0,.46,0,.69,0,0,0,.09,0,.14,0,.62,0,1.23-.11,1.85-.09a13.42,13.42,0,0,1,1.66.2c.19,0,.38.07.57.08l2.63.07c.45,0,.89,0,1.34,0a1.17,1.17,0,0,0,.46-.08,4.84,4.84,0,0,1,2.26-.28.54.54,0,0,1,.21,0,4.55,4.55,0,0,0,1.51.2c.43,0,.87,0,1.31,0,.62,0,1.23-.06,1.85-.09a3.21,3.21,0,0,1,.54,0,9.28,9.28,0,0,0,2,0c.41,0,.82,0,1.24,0a1.43,1.43,0,0,1,.94.4.46.46,0,0,1,.15.27,3.83,3.83,0,0,1,0,.47c0,.56.09,1.11.11,1.67s0,.91,0,1.37c.06,1,.1,2,.22,3a10.86,10.86,0,0,1,0,2.28c-.06.51-.11,1-.17,1.52s-.11,1.08-.21,1.61a4.71,4.71,0,0,0,.17,2.41,3.17,3.17,0,0,1,.18,1.14,6.71,6.71,0,0,0,.11,1.41,3.71,3.71,0,0,1-.17,1.75c0,.14,0,.29-.05.43-.07.35-.15.71-.2,1.07a14.84,14.84,0,0,0-.15,1.48c0,.86,0,1.73,0,2.59a3.26,3.26,0,0,0,.09.53l.09.72a.73.73,0,0,0,0,.25,7.78,7.78,0,0,1,.46,2.63,7,7,0,0,1-.06,1.58,6.81,6.81,0,0,0,0,1c0,.38,0,.75,0,1.12a5.64,5.64,0,0,1-.15.82,3.17,3.17,0,0,0,0,1.19,3.61,3.61,0,0,1,.12,1,3.17,3.17,0,0,0,.07.61c0,.22,0,.43,0,.65a4.31,4.31,0,0,0,0,.72,1.86,1.86,0,0,1-.2,1.09,1,1,0,0,0-.07.31,5.68,5.68,0,0,0,0,1.84c0,.11,0,.21,0,.32s0,.24,0,.36c0,1.08,0,2.15,0,3.23a7.79,7.79,0,0,0,0,1,11.3,11.3,0,0,1,0,1.16,14.84,14.84,0,0,0,.09,1.63,4,4,0,0,1-.09,1.29c0,.05-.07.1-.06.13a6,6,0,0,1,.06,1.27,6.15,6.15,0,0,1-.15,1.29,3.05,3.05,0,0,0-.06.6c0,.5.13,1,.19,1.48a4.34,4.34,0,0,1,0,.51c0,.19,0,.38,0,.58s0,.65,0,1a8.23,8.23,0,0,1-.15,2,6.87,6.87,0,0,0,0,1,9.67,9.67,0,0,0,.29,2.27,4.47,4.47,0,0,1,0,1.55c-.11.69-.22,1.38-.37,2.07a4,4,0,0,0,0,1.51,2.09,2.09,0,0,1,0,.25,5.27,5.27,0,0,0,0,.68c0,.53.05,1,.05,1.58a5.67,5.67,0,0,1-.06.7c0,.15,0,.31,0,.47s0,.23,0,.35,0,.09,0,.14a15.77,15.77,0,0,1-.14,2.16c0,.82-.05,1.64-.08,2.47a.32.32,0,0,0,0,.17,4.26,4.26,0,0,1,.23,1.32c0,.76.14,1.52.17,2.28a6.49,6.49,0,0,1,0,1.59c-.11.55-.12,1.1-.23,1.64a4,4,0,0,0,0,1c0,.54,0,1.08.07,1.63s.08.84.09,1.26a3.72,3.72,0,0,1-.09,1.33,1.26,1.26,0,0,0,0,.61,2.58,2.58,0,0,1-.08,1.11.42.42,0,0,0,0,.18,7.59,7.59,0,0,1,0,1.65c.07.56,0,1.12,0,1.68a2.61,2.61,0,0,0-.1,1.11c0,.83-.09,1.66-.11,2.49s0,1.5,0,2.25c0,.33,0,.65,0,1a13,13,0,0,1-.38,2.47,3.1,3.1,0,0,0,0,.43c0,.6-.11,1.2-.13,1.8,0,.35-.09.69-.13,1s-.1.82-.13,1.23a19.58,19.58,0,0,1-.41,2.64,14.17,14.17,0,0,1-.47,1.57c-.08.27-.15.56-.23.84a4.29,4.29,0,0,1-.22.72A18.43,18.43,0,0,0,627,661c-.23.74-.51,1.46-.77,2.19a5.71,5.71,0,0,0-.21.58,13.08,13.08,0,0,1-.9,2c-.08.17-.18.32-.25.49a12.76,12.76,0,0,1-1.24,2.3,2,2,0,0,0-.11.26,3.54,3.54,0,0,1-.22.57c-.31.55-.64,1.08-1,1.62-.15.26-.31.51-.46.78a2.1,2.1,0,0,1-.71.71,1.48,1.48,0,0,0-.26.24,5.94,5.94,0,0,1-1.4,1.43,10.53,10.53,0,0,0-1.35,1.32c-.63.61-1.26,1.24-1.88,1.86a2.91,2.91,0,0,0-.24.27,7.15,7.15,0,0,1-2.53,1.93l-.53.23a3.2,3.2,0,0,0-1.32.82.6.6,0,0,1-.23.16c-.72.31-1.42.63-2.15.91-.46.17-1,.24-1.41.43a9.64,9.64,0,0,1-2,.53,3.29,3.29,0,0,0-.94.37,8.66,8.66,0,0,1-1.37.58,8.33,8.33,0,0,0-2.07,1,.78.78,0,0,1-.23.08l-1.08.31c-.19,0-.38.09-.56.15l-1.18.35c-.18.06-.36.13-.55.18-.64.18-1.29.34-1.93.51-.41.11-.82.22-1.23.3a4,4,0,0,1-.69,0,5.17,5.17,0,0,0-1.73.38,6.44,6.44,0,0,1-1.67.34,4.32,4.32,0,0,0-1.33.19,6.36,6.36,0,0,1-2.09.11c-.23,0-.46,0-.69,0l-.79,0a7,7,0,0,1-.79.06,8.7,8.7,0,0,0-1.52.15c-1,.17-2,.37-3.09.48a5.64,5.64,0,0,1-2.35,0,2,2,0,0,0-1-.09c-.19,0-.36.13-.55.18a1.4,1.4,0,0,1-.45.1h-3.1c-.07,0-.16,0-.21,0a2.45,2.45,0,0,0-1-.14l-.8-.05a5.62,5.62,0,0,0-.58,0,1.79,1.79,0,0,1-.4,0,12.16,12.16,0,0,1-1.32-.23c-.71-.17-1.42-.41-2.14-.55s-1.42-.16-2.13-.26c-.47-.07-1-.19-1.42-.28s-.84-.12-1.25-.23a15.06,15.06,0,0,1-2.08-.52,6.48,6.48,0,0,0-.87-.21,5.11,5.11,0,0,1-1.32-.38,2.37,2.37,0,0,0-.65-.22l-1.23-.31s-.08,0-.1,0c-.34-.28-.82-.22-1.18-.43s-.84-.22-1.16-.55a.61.61,0,0,0-.27-.12,7.17,7.17,0,0,1-1.57-.66l-.06,0a4,4,0,0,1-1.41-.86,1,1,0,0,0-.21-.14c-.56-.29-1.13-.56-1.66-.89a7,7,0,0,0-1-.51,10.52,10.52,0,0,1-1.72-1.07,1,1,0,0,0-.27-.18,5.18,5.18,0,0,1-1.55-1.11,9.55,9.55,0,0,0-.9-.62,1,1,0,0,1-.23-.17,8.41,8.41,0,0,0-1.41-1.25c-.56-.42-1.1-.88-1.65-1.31a2.67,2.67,0,0,0-.36-.22.78.78,0,0,1-.15-.1c-.13-.12-.27-.23-.4-.36s-.52-.34-.76-.54a5.81,5.81,0,0,1-.86-1,9.54,9.54,0,0,1-.58-.92c-.19-.31-.36-.63-.53-1s-.3-.52-.43-.8-.33-.7-.46-1.06a3.35,3.35,0,0,0-.73-1.25,1.84,1.84,0,0,1-.38-.61c-.22-.65-.4-1.32-.61-2a9.53,9.53,0,0,0-.38-1.06,2.48,2.48,0,0,1-.36-.85,3.14,3.14,0,0,0-.29-.93,3.78,3.78,0,0,1-.23-1.63,6.43,6.43,0,0,0-.09-1.45,7,7,0,0,1,0-1.88C531.64,656.77,531.74,656,531.83,655.19Z"/></g><g id="SPLINE-15" data-name="SPLINE"><path class="cls-2" d="M579.75,625.76a13.62,13.62,0,0,0,3.14-.42H583a3.56,3.56,0,0,0,1-.31c.39-.17.8-.32,1.2-.46a12.52,12.52,0,0,0,1.75-.7.51.51,0,0,1,.21-.06,1.16,1.16,0,0,0,.69-.27,1.44,1.44,0,0,1,.31-.19,9.43,9.43,0,0,0,1.53-.75c.53-.32,1.06-.63,1.59-1,.35-.23.7-.47,1-.72a2.59,2.59,0,0,0,.35-.31c.1-.09.18-.19.27-.28s.25-.23.36-.35.47-.52.72-.78l1.3-1.34c.32-.34.64-.69,1-1a5.16,5.16,0,0,0,1.18-1.41c0-.08.12-.13.17-.19s.14-.17.2-.26c.15-.24.28-.49.45-.71s.56-.63.81-1c.43-.55.84-1.1,1.24-1.67a1,1,0,0,0,.18-.46,6.15,6.15,0,0,1,.4-1.47,5.46,5.46,0,0,0,.19-.66,12.62,12.62,0,0,1,.79-2.76,1.65,1.65,0,0,0,.14-.48,8.69,8.69,0,0,1,.59-2,3.13,3.13,0,0,0,.27-1.28c0-.41,0-.82,0-1.23a2.81,2.81,0,0,0,0-.29A5.26,5.26,0,0,1,603,599a2.83,2.83,0,0,0,.18-1.52c0-.06,0-.14,0-.21s0-.37,0-.55c-.08-.51-.19-1-.24-1.54a4.1,4.1,0,0,1,0-1.05,6.09,6.09,0,0,1,.3-1.09,5.26,5.26,0,0,0,.33-1.89,6.91,6.91,0,0,1-.11-.9,9.17,9.17,0,0,0-.26-2.15,4.82,4.82,0,0,1-.18-.82,10.41,10.41,0,0,0-.22-1.36c-.1-.44-.17-.88-.26-1.32a2.48,2.48,0,0,0-.37-1.09.94.94,0,0,1-.1-.31,5.66,5.66,0,0,0-.35-1.17,9.75,9.75,0,0,1-.55-1.24c-.07-.19-.15-.39-.23-.58a5.27,5.27,0,0,0-.22-.49c-.12-.28-.26-.55-.38-.82s-.39-.84-.59-1.25-.33-.59-.48-.89-.4-.8-.62-1.2-.5-.9-.77-1.35-.46-.77-.71-1.14c-.46-.65-.94-1.29-1.41-1.94a3.69,3.69,0,0,0-.74-.84c-.2-.16-.37-.35-.55-.52s-.32-.36-.5-.53-.66-.64-1-.94a10.71,10.71,0,0,0-.92-.71c-.16-.11-.37-.16-.55-.26s-.63-.4-1-.58a12.25,12.25,0,0,0-1.63-.79c-.53-.2-1-.5-1.54-.73-.68-.3-1.38-.57-2.07-.87a1.53,1.53,0,0,1-.42-.22,1.32,1.32,0,0,0-1-.33l-3,.06-.33,0a4,4,0,0,1-1.19,0,1.18,1.18,0,0,0-.53,0c-.38.13-.74.3-1.11.45a1,1,0,0,1-.37.11,2.08,2.08,0,0,0-.89.17,3.5,3.5,0,0,1-.55.17,2.3,2.3,0,0,1-1.22,0,2.57,2.57,0,0,0-1-.09,4.54,4.54,0,0,0-1.56.55,2.17,2.17,0,0,1-.67.28,7.7,7.7,0,0,0-2.65,1,3.42,3.42,0,0,0-1.09,1,2,2,0,0,1-.51.46q-.87.53-1.77,1a3.39,3.39,0,0,0-1.3,1,5.25,5.25,0,0,1-1.3,1.36,2.54,2.54,0,0,0-.59.59,5.73,5.73,0,0,1-1,.89,2.6,2.6,0,0,0-1,.89,7.84,7.84,0,0,1-1,1.35c-.19.23-.42.44-.61.67-.32.39-.64.78-.95,1.18a1.2,1.2,0,0,0-.16.32,4.39,4.39,0,0,1-.21.61c-.17.29-.37.56-.56.85a.66.66,0,0,0-.11.26,1,1,0,0,1-.25.51,5.7,5.7,0,0,0-1.12,2.19c-.14.6-.34,1.18-.54,1.77a9.08,9.08,0,0,0-.32,1.27q-.3,1.5-.57,3a7.9,7.9,0,0,0-.12,1.09c0,.66,0,1.33,0,2a3.18,3.18,0,0,1,0,.62c-.23,1.34-.47,2.67-.71,4a6.47,6.47,0,0,0,0,3.24,2.17,2.17,0,0,1,0,.25c.06.59.11,1.18.17,1.77,0,.36.06.71.12,1.06s.33.83.26,1.29a.32.32,0,0,0,0,.14l.42,1.12c.06.14.14.28.19.43s.12.39.19.58a14.61,14.61,0,0,1,.66,1.45c.09.33.26.63.34,1a10.63,10.63,0,0,0,1.23,3.33,3.61,3.61,0,0,1,.3.73,4.54,4.54,0,0,0,.62,1.27c.15.2.27.41.41.6.32.42.63.84,1,1.24s.89,1,1.35,1.57c.06.07.14.13.21.2l1.07.92,1,.92c.23.2.48.37.71.55s.57.48.87.7.68.46,1,.69c.16.11.29.27.45.36.68.36,1.37.7,2.05,1.08a4.88,4.88,0,0,0,1.1.6l.1.06a4.23,4.23,0,0,0,1.13.55c.54.12,1,.46,1.57.55a1.94,1.94,0,0,1,.61.22,3.24,3.24,0,0,0,1.32.45c.07,0,.13.06.19.09s.27.15.41.21a6.24,6.24,0,0,1,.86.3,5,5,0,0,0,1.87.46,11.59,11.59,0,0,0,1.54.2c.13,0,.25.1.38.11Z"/></g></g><g id="Layer_9_U_00A0Image" data-name="Layer 9_U+00A0Image"><g id="SPLINE-16" data-name="SPLINE"><path class="cls-1" d="M733.76,646l-.23,0c-.71.07-1.42.15-2.13.21-1,.1-2.07.2-3.11.26a17.63,17.63,0,0,1-2.72.1c-.36,0-.73,0-1.09,0-.71,0-1.43-.11-2.14-.13s-1.36,0-2,0a1.67,1.67,0,0,1-.5-.06,2.46,2.46,0,0,0-1,0l-1.23.09c-.65,0-1.3,0-1.94.09a3.86,3.86,0,0,1-1.27-.09,3.52,3.52,0,0,0-1,0c-.31,0-.63,0-.94,0l-.83,0h-.11c-.73-.17-1.47.06-2.21,0-.52-.08-.61-.13-.66-.66s-.09-1.22-.09-1.84a12.81,12.81,0,0,0-.17-1.37c0-.44-.06-.89-.1-1.34s-.1-.91-.13-1.37c0-.66-.08-1.33-.13-2,0-.22,0-.44-.06-.65a5.86,5.86,0,0,1,0-1.45q0-.47.06-.93a1,1,0,0,0,0-.25,2.16,2.16,0,0,0-.85.55c-.42.42-.79.88-1.2,1.31a3.58,3.58,0,0,1-.55.47c-.94.66-1.89,1.31-2.84,2a2.07,2.07,0,0,0-.39.33,1.51,1.51,0,0,1-.6.4,3.55,3.55,0,0,0-1.16.8l-.14.12a11.64,11.64,0,0,1-3.37,1.89c-.29.09-.56.25-.84.35l-1.5.45a3.22,3.22,0,0,0-.61.24c-.45.25-.88.55-1.34.8a1.47,1.47,0,0,1-1,.21.85.85,0,0,0-.69.15,2.72,2.72,0,0,1-1.57.48,7,7,0,0,0-1.51.16,8.29,8.29,0,0,0-.79.28,2.85,2.85,0,0,1-.71.12,3.32,3.32,0,0,0-1.17.21c-.28.08-.56.13-.85.2l-.77.18L681,647a10.66,10.66,0,0,0-1.38.33,16.4,16.4,0,0,1-2.76.61,7,7,0,0,1-2.46.07l-.4-.05c-.85,0-1.69-.1-2.54-.12a5,5,0,0,0-.94.11,6.35,6.35,0,0,1-.86.12c-.94,0-1.87,0-2.8,0-1.14-.07-2.27-.18-3.4-.32s-2.4-.35-3.59-.56c-.82-.14-1.64-.35-2.45-.52s-1.59-.33-2.38-.51a4.26,4.26,0,0,1-1.35-.52l-.07,0-1.91-.79a1.09,1.09,0,0,1-.27-.11,9,9,0,0,0-1.75-.89,12.16,12.16,0,0,1-1.15-.53,6.67,6.67,0,0,1-1.2-.74,1.53,1.53,0,0,0-.46-.28l-1.23-.65a3.14,3.14,0,0,0-.31-.18,7.16,7.16,0,0,1-1.55-.93,16,16,0,0,1-2.27-1.75c-.39-.4-.82-.75-1.21-1.14-.22-.22-.4-.49-.6-.73s-.35-.43-.53-.64a1.3,1.3,0,0,1-.1-.15l-.75-1.69c-.23-.54-.48-1.06-.7-1.6-.15-.37-.27-.75-.4-1.13-.2-.6-.39-1.2-.59-1.79-.12-.36-.25-.73-.4-1.08s-.29-.56-.39-.86a12.42,12.42,0,0,1-.9-3.51,7.78,7.78,0,0,0-.29-1.42c-.06-.26-.18-.5-.23-.76s-.06-.65-.1-1c-.07-.62-.13-1.23-.21-1.84,0-.35-.16-.68-.19-1a4.51,4.51,0,0,1,0-.9c0-.33.08-.65.08-1a10.67,10.67,0,0,1,.28-2.38,3.69,3.69,0,0,0,0-1.62,1.23,1.23,0,0,1,.14-.84,1.22,1.22,0,0,0,.15-.48,5.83,5.83,0,0,1,.18-1.32c.07-.28.2-.55.29-.82a5.67,5.67,0,0,0,.1-.57c0-.15,0-.31.09-.46a13.8,13.8,0,0,1,1-2.6L637,604a2,2,0,0,1,.18-.32,10,10,0,0,0,1.09-1.8,1.59,1.59,0,0,1,.13-.22l1.26-1.65.23-.33a8.74,8.74,0,0,1,1-1.39c.46-.46.86-1,1.28-1.48a3.06,3.06,0,0,1,.35-.37c.46-.41,1-.79,1.39-1.23a10.11,10.11,0,0,1,1.38-1.06c.4-.3.88-.5,1.3-.79a17.21,17.21,0,0,1,1.87-1.17,4.29,4.29,0,0,0,.6-.42,5.45,5.45,0,0,1,1.56-.83c.06,0,.13,0,.17-.06a3.73,3.73,0,0,1,1.25-.48c.25-.07.53-.06.78-.14a5.83,5.83,0,0,0,1.19-.44,2.93,2.93,0,0,1,1.17-.35,2.59,2.59,0,0,0,1-.28,3.47,3.47,0,0,1,1-.26,5.93,5.93,0,0,0,2.18-.54,2.76,2.76,0,0,1,1.46-.37,2.59,2.59,0,0,0,.61-.1l1.82-.5a2.39,2.39,0,0,1,.65-.11,9.08,9.08,0,0,0,1.93-.34c.74-.17,1.48-.36,2.24-.46a12.09,12.09,0,0,0,1.46-.27.86.86,0,0,1,.32,0,1.66,1.66,0,0,0,1-.23,1.77,1.77,0,0,1,.87-.23,3.76,3.76,0,0,0,1.28-.23,5,5,0,0,1,1.67-.26c.78,0,1.55,0,2.33,0a5.58,5.58,0,0,0,.82-.11,1.46,1.46,0,0,1,.4-.07,8.93,8.93,0,0,0,1.55-.06,2.1,2.1,0,0,0,.8-.2,2.37,2.37,0,0,1,.7-.15c.34,0,.68-.07,1-.11.71-.1,1.42-.2,2.12-.32l1.68-.33.18,0c.68-.07,1.37-.15,2.06-.21.42,0,.84,0,1.26-.1a4.92,4.92,0,0,0,1-.27,2.46,2.46,0,0,1,.85-.16,2.74,2.74,0,0,0,.55-.13,8,8,0,0,1,.8-.23,6.78,6.78,0,0,0,1.47-.39c.65-.29,1.31-.56,2-.84l.65-.23c.63-.24,1.28-.46,1.89-.73a2.13,2.13,0,0,0,1.16-.84.35.35,0,0,1,.17-.19c.42-.24.64-.69,1-1s.5-.45.76-.67a3.57,3.57,0,0,0,1-1.26c.21-.5.5-1,.7-1.47a6,6,0,0,0,.57-2.5c0-.19.07-.38.08-.57,0-.52.06-1,.09-1.55,0-.2,0-.41.07-.61a4.5,4.5,0,0,0-.29-2c-.18-.57-.43-1.11-.64-1.66s-.3-.92-.49-1.36a3.61,3.61,0,0,0-.51-.87,16.49,16.49,0,0,0-2.16-2.1,7.52,7.52,0,0,0-1.32-.83,10,10,0,0,1-2-1.32,3.46,3.46,0,0,0-1.77-.78c-.59-.1-1.18-.1-1.78-.17s-1.37-.15-2-.24a5.68,5.68,0,0,1-1-.18c-.68-.23-1.39-.23-2.07-.39-1-.23-2-.17-3-.33a14.34,14.34,0,0,0-3-.13h-.15a6,6,0,0,0-2.41.21l-.14,0a5.78,5.78,0,0,0-1.65.24,4,4,0,0,0-.59.16c-.32.11-.64.23-.95.36a3.2,3.2,0,0,0-.52.27c-.61.46-1.21.93-1.81,1.4a1.59,1.59,0,0,1-.21.15c-.35.23-.7.48-1.07.68a3.68,3.68,0,0,0-1.28,1.26c-.39.53-.75,1.08-1.14,1.6a11,11,0,0,0-1.59,2.76,2.71,2.71,0,0,1-.43.61c0,.07-.14.11-.18.19a4.63,4.63,0,0,0-.88,2.35,2.36,2.36,0,0,1-.1.53,6.75,6.75,0,0,0-.2,1.84c0,.35,0,.7,0,1.1a7.2,7.2,0,0,1-.75.16,3.15,3.15,0,0,1-1.26,0,1.46,1.46,0,0,0-.72,0,12.87,12.87,0,0,1-2,.1c-.67,0-1.33.07-2,.09a5.36,5.36,0,0,1-.8,0,25.6,25.6,0,0,0-2.9-.26c-.21,0-.43,0-.65,0a10.1,10.1,0,0,1-1.23,0,13.48,13.48,0,0,0-1.8.08,10.36,10.36,0,0,1-1.12-.08,22.81,22.81,0,0,0-3.2.18,6.42,6.42,0,0,1-1.16,0c-.84-.1-1.68-.27-2.52-.32l-1.66-.11a1.06,1.06,0,0,0-.49.11,1.68,1.68,0,0,1-.8.18,11.1,11.1,0,0,1-2-.2,4.69,4.69,0,0,0-.77-.07c0-.19,0-.36,0-.53,0-.58,0-1.16,0-1.74a5.32,5.32,0,0,1,.14-.89,1.5,1.5,0,0,0,.06-.29c0-.51,0-1,.07-1.52a1.42,1.42,0,0,0,0-.36,1.42,1.42,0,0,1,.06-.79,1.58,1.58,0,0,0,.1-.49q0-.51,0-1a.51.51,0,0,0,0-.21,1.68,1.68,0,0,1,.11-1.4,18.21,18.21,0,0,0,1-2.79,15.73,15.73,0,0,1,.74-2.09,4.21,4.21,0,0,1,.59-.78c.1-.13.18-.27.28-.41a8,8,0,0,1,1.1-1.43l.06-.05,1.18-1.55a2.66,2.66,0,0,1,.39-.43,6.3,6.3,0,0,0,1-.94.38.38,0,0,1,.18-.13,1.46,1.46,0,0,0,.73-.61,4.93,4.93,0,0,1,.5-.52c.25-.26.49-.54.74-.8.53-.53,1.06-1.06,1.61-1.58s1-.86,1.48-1.27c.21-.17.44-.31.65-.46A.71.71,0,0,1,652,548a2.73,2.73,0,0,0,1-.49c.54-.38,1.12-.71,1.68-1.08.39-.25.77-.53,1.17-.79a2.39,2.39,0,0,1,.48-.24.69.69,0,0,1,.13,0,10,10,0,0,1,2.36-.69,7.56,7.56,0,0,0,2.65-1.23c.41-.28.85-.52,1.28-.77a.69.69,0,0,1,.29-.13,4.5,4.5,0,0,0,1.5-.62c.51-.23,1-.42,1.52-.69a15.27,15.27,0,0,1,2.2-1,12.83,12.83,0,0,1,1.73-.42c.56-.12,1.12-.21,1.68-.31a.55.55,0,0,1,.18,0,8.23,8.23,0,0,0,2.16-.12,7,7,0,0,1,1.45-.06c.39,0,.79,0,1.2,0a1.28,1.28,0,0,0,.82-.22.84.84,0,0,1,.44-.13c.38,0,.75,0,1.13,0a5.85,5.85,0,0,0,.72-.07,5.13,5.13,0,0,1,.67-.09,7.34,7.34,0,0,1,1.81.14,13.93,13.93,0,0,0,1.69.21,8,8,0,0,0,1,0,14.05,14.05,0,0,1,1.45,0c.69,0,1.38-.07,2.07-.08l2.87,0c.7,0,1.41,0,2.11,0s1.11.07,1.67.11a2.58,2.58,0,0,0,.4,0,19.84,19.84,0,0,1,2.67.17c.81.06,1.62.15,2.43.22l.69,0c.88.07,1.76.12,2.64.24s1.73.26,2.57.45c.44.11.87.19,1.31.28.24.05.46.14.7.2.51.16,1,.29,1.53.46a13.89,13.89,0,0,1,1.35.52,9.11,9.11,0,0,0,1.77.56c.73.16,1.46.34,2.18.55.43.13.83.34,1.25.5s.57.2.85.3a.84.84,0,0,1,.17,0l1.66,1,.09.06c.45.29.9.58,1.34.88.66.45,1.32.9,2,1.36a2.55,2.55,0,0,1,.45.42c.13.13.25.26.37.4a2.47,2.47,0,0,1,.55.75,3.09,3.09,0,0,0,.64.82c.14.15.32.26.46.41.3.3.59.61.88.92s.36.39.56.56a9,9,0,0,1,.8.84,10.65,10.65,0,0,0,.95.83,7.16,7.16,0,0,1,1.37,1.64,20.5,20.5,0,0,1,.88,1.91c.21.45.48.87.69,1.32s.3.8.52,1.16a10,10,0,0,1,1,2.43,5.56,5.56,0,0,1,.18,1.07,10.52,10.52,0,0,0,.51,2.48,4.35,4.35,0,0,1,.16,1.76,6.77,6.77,0,0,1-.09,1c-.14.64-.1,1.3-.2,1.94a13.22,13.22,0,0,0,0,1.78,1.6,1.6,0,0,0,0,.21,2.63,2.63,0,0,1,.06.39c0,.63,0,1.26-.05,1.89a11.91,11.91,0,0,0,0,1.69c.09.75.16,1.51.22,2.27a5.39,5.39,0,0,1-.13,1.7,4.66,4.66,0,0,0,0,.65s0,.07,0,.1a25.16,25.16,0,0,0,.06,3c0,.48,0,1-.05,1.45,0,1-.09,1.91-.12,2.87,0,.45,0,.9,0,1.35s0,1.17,0,1.75c0,.2,0,.41,0,.61,0,.43,0,.85-.08,1.27-.05.66-.15,1.33-.15,2a17.64,17.64,0,0,0,0,2.72,4.35,4.35,0,0,1,0,.51c0,.61,0,1.23,0,1.85s.06,1.18.07,1.77c0,.75,0,1.51,0,2.26s.08,1.47.12,2.2c0,.06,0,.12,0,.18,0,.74,0,1.48,0,2.22a19.85,19.85,0,0,0,.11,2.31,11.84,11.84,0,0,1-.06,2.79,2.68,2.68,0,0,0,0,.75,5.93,5.93,0,0,1,0,1.88c0,.08,0,.15,0,.22a5.5,5.5,0,0,1,0,1.62c0,.53,0,1.07,0,1.6a3.88,3.88,0,0,1,0,.76,6.69,6.69,0,0,0-.1,1.26c0,.58,0,1.16,0,1.74s.06,1,.05,1.55-.05.9-.08,1.34a2.85,2.85,0,0,0,0,.4,14.11,14.11,0,0,1,0,1.72c0,.37,0,.75,0,1.12,0,.55-.08,1.1-.11,1.66,0,.31,0,.63,0,.94,0,.67.12,1.34.07,2,0,.4,0,.8,0,1.2,0,.81.07,1.62.11,2.43,0,.44,0,.89,0,1.34a10.92,10.92,0,0,0,.14,1.8,6.44,6.44,0,0,1,0,.76l.06,1.38c0,.38,0,.77.09,1.16.06.6.13,1.2.2,1.8A1.05,1.05,0,0,1,733.76,646Z"/></g><g id="SPLINE-17" data-name="SPLINE"><path class="cls-2" d="M703.21,596.86a7.5,7.5,0,0,0-2,.25c-.51.13-1,.27-1.55.37s-.77.08-1.14.17a7.1,7.1,0,0,1-2,.34,6.46,6.46,0,0,0-1.69.2c-.52.11-1.06.16-1.57.28a6.41,6.41,0,0,1-1.14.17c-.23,0-.44.1-.67.14a3,3,0,0,1-.43.06c-.53,0-1.06,0-1.59.08l-2.32.19a12,12,0,0,0-1.79.16,5.05,5.05,0,0,1-.68.07c-.33,0-.67,0-1,.1l-2.43.42a.32.32,0,0,0-.17.06.76.76,0,0,1-.46.17c-.23,0-.45.07-.67.12-1.22.27-2.44.5-3.65.79l-1.63.39c-.92.21-1.85.41-2.77.6s-1.84.34-2.75.56c-.65.16-1.34.19-2,.39-.13,0-.26.11-.4.15s-.51.12-.76.2c-.43.14-.85.29-1.27.46a4.09,4.09,0,0,0-.84.41c-.37.25-.68.58-1,.86s-.52.38-.78.58a2.74,2.74,0,0,0-.54.41,4.49,4.49,0,0,1-.82.81,1.72,1.72,0,0,0-.49.48c-.25.43-.45.88-.67,1.33-.4.81-.77,1.64-1.21,2.44a7.76,7.76,0,0,0-.93,2.27,10.41,10.41,0,0,0-.12,1.37c0,.79,0,1.57-.06,2.35a7.51,7.51,0,0,0,0,.82c0,.39.11.77.16,1.15a7.65,7.65,0,0,0,.72,2.13,8,8,0,0,0,1.14,1.63c.22.26.42.53.64.79s.5.52.74.79c.48.55,1,1.09,1.43,1.65a4.32,4.32,0,0,0,.75.73,10.17,10.17,0,0,0,1.59,1c.56.28,1.11.59,1.67.88a10.45,10.45,0,0,0,1.17.56c.63.23,1.27.39,1.9.61a3.93,3.93,0,0,0,1.81.44l.11,0c.74.06,1.47.14,2.21.17a7,7,0,0,0,1.58.09c.82.16,1.63-.27,2.45-.07h0a2.23,2.23,0,0,1,.89-.07c.64-.06,1.28-.07,1.92-.08a6.73,6.73,0,0,0,1.38-.27,4.41,4.41,0,0,1,1.35-.24,1.63,1.63,0,0,0,.42-.08l1.42-.3a2.18,2.18,0,0,0,.52-.1,7.73,7.73,0,0,1,1-.38c.61-.17,1.22-.31,1.84-.44a4.18,4.18,0,0,1,.92-.19c.5,0,1-.21,1.47-.2a2.67,2.67,0,0,1,1.27-.3,7.06,7.06,0,0,0,1.26-.32.61.61,0,0,0,.18-.05c.58-.29,1.17-.58,1.74-.89s1.41-.78,2.16-1.1a2,2,0,0,0,.81-.59,2,2,0,0,1,.47-.39,2.43,2.43,0,0,0,.89-1,4.15,4.15,0,0,1,1-1.35,3.64,3.64,0,0,0,1.21-2.22,2.21,2.21,0,0,1,.15-.56,9.67,9.67,0,0,1,.6-1.66,8.18,8.18,0,0,0,.52-1.35,5.12,5.12,0,0,0,.15-.56c.06-.29.1-.57.14-.86a10.75,10.75,0,0,0,.23-1.58,11.88,11.88,0,0,1,.4-2.14,6.3,6.3,0,0,0,.19-1.83,17.13,17.13,0,0,1-.13-2.68,6.6,6.6,0,0,1,.14-1.33,2.65,2.65,0,0,0,.1-.89c0-.53,0-1.06,0-1.59a4.29,4.29,0,0,0-.07-.5c0-.16-.06-.33-.08-.5l-.06-.9c0-.11,0-.22,0-.32a3.92,3.92,0,0,0-.16-1.44,11.7,11.7,0,0,1-.27-1.31C703.39,597.56,703.46,597.19,703.21,596.86Z"/></g></g><g id="Layer_6_U_00A0Image" data-name="Layer 6_U+00A0Image"><g id="SPLINE-18" data-name="SPLINE"><path class="cls-1" d="M806.51,567.57a1.5,1.5,0,0,1-1.3.41,6.91,6.91,0,0,0-1.63.31,1.51,1.51,0,0,1-.42.05c-.45,0-.9-.08-1.34-.15-.6-.1-1.21-.22-1.81-.36a1.92,1.92,0,0,0-.86,0,10,10,0,0,1-1.21.25c-.47,0-1,0-1.44,0-.71,0-1.43.06-2.14,0s-1.34.27-2,.32l-1.52.11-1.15.07a1.62,1.62,0,0,1-.44,0,3.74,3.74,0,0,0-1.52.17l-.53.12c-.32.07-.64.15-1,.2-.64.11-1.27.19-1.91.28a3.81,3.81,0,0,0-1.38.53,5.55,5.55,0,0,1-.91.46,4.38,4.38,0,0,0-1.22.71c-.49.38-1,.78-1.46,1.15a16.25,16.25,0,0,1-1.79,1.29,1.79,1.79,0,0,0-.26.2,11.33,11.33,0,0,0-1.37,1.4c-.46.58-1,1.12-1.41,1.71s-.82,1.14-1.23,1.71a.41.41,0,0,0,0,.09c-.13.55-.41,1-.58,1.56a9.09,9.09,0,0,1-1,1.93c-.26.41-.53.83-.78,1.26a5.15,5.15,0,0,0-.23.54c-.08.2-.17.4-.26.59s-.12.19-.16.29c-.35.92-.72,1.83-1.05,2.75-.16.44-.23.92-.38,1.37a18.73,18.73,0,0,0-.39,2.36c0,.21-.1.42-.14.64a5.23,5.23,0,0,0,0,1.37,6.93,6.93,0,0,1-.23,2.56,10.46,10.46,0,0,0-.24,1.14,15.54,15.54,0,0,0-.33,4.51,4.25,4.25,0,0,1-.06.94c-.08.79-.2,1.56-.27,2.35a8.43,8.43,0,0,0,.15,3,5.39,5.39,0,0,1,.06,1.88c0,.19,0,.38,0,.58,0,.56-.06,1.13-.07,1.7a2.78,2.78,0,0,0,.07.57,2.52,2.52,0,0,1,.06.47c0,.63,0,1.26-.06,1.89a1,1,0,0,0,0,.25,11.25,11.25,0,0,1,.24,2.31c0,.6,0,1.19,0,1.79s.06,1.18.08,1.77c0,.33,0,.66,0,1a26.26,26.26,0,0,0,0,3.2c0,.29,0,.58-.06.88,0,.93-.05,1.86-.08,2.79s0,1.65-.12,2.47a24.69,24.69,0,0,0-.12,2.57c0,.91,0,1.82,0,2.73s-.06,1.67-.09,2.5c0,.5-.05,1-.05,1.49a1.86,1.86,0,0,0,.11.57,1,1,0,0,1,.06.67,1.66,1.66,0,0,0,0,.22c0,.48.09,1,.11,1.44s0,.73,0,1.09,0,.63,0,1a4.22,4.22,0,0,1-.19,1.46c-.11.32-.17.38-.51.4a10,10,0,0,1-1.22,0,2.44,2.44,0,0,0-1.5.22,1,1,0,0,1-.64,0,3,3,0,0,0-.85-.1c-.36,0-.73,0-1.09,0l-.69.06h-.5c-.51,0-1-.07-1.53-.06s-.89.09-1.33.13H757a3.59,3.59,0,0,0-.47,0,12.38,12.38,0,0,1-3,.08,7.69,7.69,0,0,0-1.07,0,3,3,0,0,1-1.29-.11,3.37,3.37,0,0,0-1.94-.08,1.89,1.89,0,0,1-.71,0c-.59-.07-1.18-.18-1.76-.25a2.43,2.43,0,0,0-.66,0,14.14,14.14,0,0,1-3.12.12,6.17,6.17,0,0,0-1.29.08,6.42,6.42,0,0,1-1.24,0c-.5,0-1-.11-1.54-.18a1.33,1.33,0,0,1,0-.24c-.05-.7-.1-1.4-.12-2.1s0-1.14,0-1.71c0-.18,0-.36,0-.54,0-.7,0-1.4,0-2.1s0-1.31,0-2c0-1,.05-1.94.05-2.9,0-.66,0-1.31-.05-2a8.06,8.06,0,0,1,.05-1.63,3.51,3.51,0,0,0,0-1.37c-.06-.28-.12-.57-.19-.85a6.28,6.28,0,0,1-.16-2.16c0-.34.1-.67.12-1s0-.94,0-1.41c0-.32,0-.63,0-.94s0-.53.06-.8.06-.75.06-1.12,0-.73-.07-1.09a1,1,0,0,1,.14-.7.41.41,0,0,0,0-.31,5.07,5.07,0,0,1,0-2,8.15,8.15,0,0,0,.06-1.48,2.88,2.88,0,0,1,.06-.72,2.36,2.36,0,0,0,0-.46,1.55,1.55,0,0,1,0-.21c0-.67,0-1.33,0-2,0-.26,0-.53,0-.79.05-.86.09-1.72.16-2.58.15-1.86,0-3.71.05-5.57,0-.35,0-.7,0-1,.05-.9.14-1.8.16-2.69a12.21,12.21,0,0,0-.15-1.34c0-.27-.08-.55-.1-.83,0-.44-.06-.89-.08-1.33s0-1.12,0-1.67c0-1.09,0-2.19,0-3.28,0-.26,0-.53,0-.79a3.73,3.73,0,0,0,0-.47c0-.26-.05-.53-.1-.79a5,5,0,0,1,.13-1.22c0-.56.1-1.12.1-1.67s-.07-1.23-.1-1.85a4.16,4.16,0,0,1,0-1.27.87.87,0,0,0,0-.32c0-.06,0-.12,0-.18,0-.4,0-.81.06-1.21s.07-.68.08-1c0-.54,0-1.09,0-1.63,0-.14,0-.29,0-.43a6,6,0,0,0-.06-.61,3.17,3.17,0,0,1,0-1.5,2.28,2.28,0,0,0,.06-.64c0-.22,0-.45,0-.67a1.09,1.09,0,0,0,0-.18c-.07-.5-.12-1-.23-1.5a1.5,1.5,0,0,1,0-.89,1.85,1.85,0,0,0,0-1.14,1.35,1.35,0,0,1,0-.6,1.35,1.35,0,0,0-.12-.81,1,1,0,0,1-.05-.53c.05-.51.11-1,.2-1.51a5.63,5.63,0,0,0-.07-2.24,7.44,7.44,0,0,1-.1-1.15c0-.48,0-1,0-1.42s0-.92,0-1.38c0-.26,0-.51,0-.76a1.09,1.09,0,0,1,0-.18c0-.74,0-1.48,0-2.22a1.62,1.62,0,0,1,0-.22,9.84,9.84,0,0,0,0-1.8,18.4,18.4,0,0,1,.08-3.48,10,10,0,0,0,.07-1.45c0-.32,0-.63,0-1,0-.62.08-1.25.14-1.88s.14-1.11.2-1.66a1.11,1.11,0,0,0,0-.36,11.43,11.43,0,0,1,0-1.85c0-.53,0-1.06-.06-1.59a.51.51,0,0,1,.48-.52,6.36,6.36,0,0,1,.86.07.88.88,0,0,0,.53,0,1.38,1.38,0,0,1,1.16,0,2.15,2.15,0,0,0,1,.11c.26,0,.53,0,.79,0l1.23,0a6.66,6.66,0,0,1,.76-.06,16.79,16.79,0,0,0,1.74-.16,7.58,7.58,0,0,1,2.28,0,.37.37,0,0,0,.11,0,10.84,10.84,0,0,1,2.13.13c.38,0,.75,0,1.13,0s.53,0,.8,0a25.8,25.8,0,0,1,2.78.07c.45,0,.89.08,1.34.1.24,0,.48,0,.72,0,.6,0,1.19-.1,1.78-.08a13.73,13.73,0,0,1,1.91.19,12.37,12.37,0,0,0,1.73.09c.4,0,.8,0,1.2,0a.66.66,0,0,1,.64.68.68.68,0,0,0,0,.29,2.45,2.45,0,0,1,.17,1c0,.24,0,.48.07.72a16.83,16.83,0,0,1,0,2.13c0,.48,0,1,0,1.45,0,.64,0,1.28,0,1.92,0,.31.06.63.09.94a1.11,1.11,0,0,1,0,.36,6.85,6.85,0,0,0-.08,2c0,.61,0,1.21,0,1.82s.12,1.2.18,1.8a.74.74,0,0,0,.08.15c.19-.21.38-.4.55-.61s.54-.62.81-.93c.53-.6,1.06-1.2,1.58-1.81s.87-1.07,1.32-1.59,1.09-1.26,1.68-1.85c.41-.41.89-.75,1.33-1.13s.82-.72,1.26-1,1-.7,1.57-1l.23-.18a2.43,2.43,0,0,1,.84-.56,1.21,1.21,0,0,0,.43-.26c.3-.25.6-.5.88-.77a6.07,6.07,0,0,1,1.54-1.07c.71-.36,1.43-.67,2.11-1.06a6.79,6.79,0,0,1,1.39-.6,1.74,1.74,0,0,0,.62-.32,3.59,3.59,0,0,1,1.24-.57c.51-.17,1-.34,1.53-.49a29.6,29.6,0,0,1,3.49-1c.58-.11,1.15-.32,1.72-.47s.87-.22,1.31-.3a8,8,0,0,1,1.18-.18,4.53,4.53,0,0,0,1-.22,2.93,2.93,0,0,1,.6,0l1.44-.15c.14,0,.29,0,.43,0,1.05,0,2.1,0,3.15.05a7,7,0,0,0,1,0,17,17,0,0,1,2.14,0,1.66,1.66,0,0,1,.55.17.32.32,0,0,1,.11.24c0,.67.09,1.33.1,2a7.27,7.27,0,0,0,.15,1.74,3.62,3.62,0,0,1,0,.47l.12,2.22c0,.22,0,.43,0,.65,0,1.11.05,2.21.06,3.31,0,.83-.1,1.67-.16,2.5a2.8,2.8,0,0,0,0,.4c.07.95.14,1.89.22,2.83,0,.57.12,1.13.19,1.7a1.4,1.4,0,0,1,0,.29,22.5,22.5,0,0,0,.05,4,6.9,6.9,0,0,1,0,1.7C806.55,566.35,806.55,567,806.51,567.57Z"/></g></g><g id="Layer_1_U_00A0Image" data-name="Layer 1_U+00A0Image"><g id="SPLINE-19" data-name="SPLINE"><path class="cls-1" d="M812,647.64c0-.24,0-.48-.06-.72-.07-1.09-.12-2.18-.2-3.27,0-.63-.11-1.26-.16-1.89a3.75,3.75,0,0,1,0-.58,17.4,17.4,0,0,0,.13-3.95c-.07-.52-.06-1-.09-1.55,0-.27,0-.54-.06-.82s0-.4,0-.61,0-.4,0-.61a2.16,2.16,0,0,1,.1-.72,1,1,0,0,0,0-.58,1.66,1.66,0,0,1,.06-.86,1.71,1.71,0,0,0,0-.87c0-.12,0-.28,0-.42a.19.19,0,0,0,0-.08c0-.4,0-.8.05-1.21,0-.23,0-.47,0-.71a2.68,2.68,0,0,1,.07-.27,6.76,6.76,0,0,0,.1-.77c0-.24-.06-.48-.06-.72s0-.72.08-1.08c.12-1,.29-1.9.37-2.86.06-.68,0-1.36,0-2a10.4,10.4,0,0,0-.32-1.92,7.22,7.22,0,0,1-.14-1q-.06-1.82-.06-3.63a2.87,2.87,0,0,1,.12-.65,2.85,2.85,0,0,0,0-.29c0-.27,0-.54.05-.82s0-.27,0-.41c.06-.61.14-1.21.18-1.82a8.18,8.18,0,0,0,0-1,8.62,8.62,0,0,1,0-1.83c0-.25,0-.52,0-.78,0-.54.1-1.07.11-1.61a11,11,0,0,0,0-1.72,11.58,11.58,0,0,1,0-1.32c0-.4,0-.79-.07-1.19s-.05-.91-.07-1.36c0-.77,0-1.54-.06-2.31s0-1.33,0-2c0-.38.07-.75.08-1.12s0-.81,0-1.21,0-.78.05-1.16,0-1,0-1.51,0-1,0-1.56,0-1,0-1.52c0-.27,0-.54,0-.81,0-.55.07-1.09.08-1.63,0-.36,0-.72,0-1.08-.06-1.09-.07-2.18-.09-3.27,0-.37.07-.74.07-1.1s-.06-.52-.08-.78a11.13,11.13,0,0,1,0-2c0-.47.12-.93.14-1.4,0-.31-.07-.61-.08-.92,0-.72-.07-1.44-.06-2.15,0-.89.08-1.76,0-2.65,0-.42,0-.84,0-1.27s0-.66,0-1,0-.72,0-1.07a7.72,7.72,0,0,0-.06-.83c0-.48-.1-1-.11-1.44s0-1.15,0-1.72a.17.17,0,0,1,0-.07,3.24,3.24,0,0,0,.13-1.07c0-.4,0-.79,0-1.18s0-.87,0-1.31c0-.17-.05-.34-.05-.52s0-.6,0-.9c0-.49,0-1,0-1.48,0-.71,0-1.43,0-2.15s0-1.36,0-2a5.51,5.51,0,0,0,0-.7,4.12,4.12,0,0,1-.07-.91,8.83,8.83,0,0,0,.15-2.11c0-.66,0-1.32,0-2s.09-1.29.13-1.93c0-.18,0-.37,0-.55s0-.25,0-.38,0-.22,0-.34a.84.84,0,0,1,0-.27,1.26,1.26,0,0,1,.13-.26.24.24,0,0,1,.12-.1c.37-.13.75-.27,1.14-.39a.66.66,0,0,1,.25,0c.52,0,1.05,0,1.57,0a10.48,10.48,0,0,1,2.16.21,13.47,13.47,0,0,0,2.37.21,6,6,0,0,1,.74.07,1.41,1.41,0,0,0,.41,0c.24,0,.47-.07.7-.07.54,0,1.08,0,1.62,0a10.37,10.37,0,0,1,1.25.11c.37.05.73.14,1.1.19.2,0,.4,0,.6,0a28.58,28.58,0,0,0,4.72.13c.46,0,.93-.13,1.39-.15,1.07,0,2.15-.06,3.22-.08h3.37l.39,0c.15,0,.19.09.14.22a.45.45,0,0,0,0,.39.09.09,0,0,1,0,.1.91.91,0,0,0,0,.61c0,.23.14.47,0,.71a.28.28,0,0,0,0,.18,1,1,0,0,1,0,.69.92.92,0,0,0,0,.16c0,.33,0,.67,0,1s.06.43.06.64,0,.41-.05.62a2.53,2.53,0,0,0,0,.38,4.54,4.54,0,0,1,.07,1,6.54,6.54,0,0,0-.08.88,5.09,5.09,0,0,0,0,1.17,4.1,4.1,0,0,1,0,.7,3.29,3.29,0,0,0,0,.44c0,.45.09.89.1,1.34s0,.9,0,1.34c0,.7-.07,1.39-.09,2.09s-.07,1.36,0,2c0,1-.09,1.91-.13,2.86,0,.41,0,.82-.07,1.23,0,.59-.07,1.18-.12,1.76s-.15.92-.19,1.38,0,.81,0,1.22,0,.74,0,1.12c0,.73-.06,1.46,0,2.19s.08,1.23.13,1.85c.05.79.11,1.57.15,2.36a38.79,38.79,0,0,1,.08,3.89c0,.52.06,1.05.08,1.57s0,1.12,0,1.68c0,.81,0,1.62,0,2.43a15.4,15.4,0,0,1-.12,1.8,7.32,7.32,0,0,0,0,.94c0,1,0,2.1,0,3.15,0,.34,0,.68,0,1l0,1.4c0,.45,0,.89,0,1.34s0,.75,0,1.13c0,.61,0,1.22,0,1.83s-.08.95-.12,1.43-.09,1.12-.11,1.69,0,1.29,0,1.94,0,1.48,0,2.23,0,1.31-.07,2c0,.23,0,.47,0,.7s0,.74,0,1.11c0,.18,0,.36,0,.54,0,.51,0,1,0,1.54,0,.88,0,1.76,0,2.63,0,.61,0,1.21-.06,1.82,0,.41,0,.83,0,1.24s0,.94,0,1.41c0,.16,0,.32,0,.48l.09,1.14a.66.66,0,0,0,0,.14c0,.11.05.22.07.33a2.47,2.47,0,0,1,.06.29,1.79,1.79,0,0,1,0,.4c-.06.4-.16.79-.22,1.19s.08,1,0,1.47a3.62,3.62,0,0,1-.11,1,4,4,0,0,0-.11,1.1c0,.31,0,.62,0,.94,0,.09,0,.19,0,.29,0,.41,0,.82,0,1.23a7.39,7.39,0,0,0,0,1.41,10.19,10.19,0,0,1,.09,1.24c0,.37,0,.74,0,1.11a8,8,0,0,0,.09.84,3.53,3.53,0,0,1-.1,1.74,2.21,2.21,0,0,0-.11.8c0,.48,0,1,0,1.42s0,.77,0,1.16l0,1c0,.68,0,1.37,0,2s0,1.15,0,1.72,0,.92,0,1.38c0,.3-.05.59-.06.89,0,.69,0,1.38,0,2.07,0,.53,0,1.05,0,1.58a.24.24,0,0,0,.09.23c.05,0,.05.18,0,.27s-.14.28-.37.26l-1.09,0-.59,0h-1.72c-.29,0-.57.09-.86.1s-.68,0-1,0l-1.53.14a9,9,0,0,1-1,0c-.29,0-.59-.09-.89-.13a1.79,1.79,0,0,0-.4,0l-2.1.27a14.13,14.13,0,0,1-1.46.1,6.31,6.31,0,0,1-.85-.15,4,4,0,0,0-.49,0c-.33,0-.67-.07-1-.13s-.62-.14-.93-.22l-.48-.15a3.12,3.12,0,0,0-1.14-.11c-.22,0-.44,0-.65,0s-.56,0-.84.05c-.63,0-1.27.06-1.9,0a5,5,0,0,0-.86.05,6.09,6.09,0,0,1-.74,0l-.64,0c-.13,0-.27,0-.4,0s-.23,0-.34,0l-.82.16s-.08,0-.12,0a1.17,1.17,0,0,0-.24-.09Z"/></g><g id="SPLINE-20" data-name="SPLINE"><path class="cls-1" d="M813.81,526.12a2,2,0,0,1-.18-.26c-.28-.66-.56-1.32-.83-2a6,6,0,0,1-.25-.85c0-.13.05-.31,0-.41a1.74,1.74,0,0,1-.17-.62,4.2,4.2,0,0,1,0-.79c0-.36,0-.71,0-1.07s0-1,0-1.52a10.31,10.31,0,0,1,.17-1.36,2.56,2.56,0,0,1,.19-.5c.05-.11,0-.2-.13-.2.08-.29.16-.56.24-.83s.12-.43.17-.64c0,0,0,0,0,0,.23-.35.18-.79.32-1.16a3.27,3.27,0,0,1,.74-1.19c.2-.21.36-.45.54-.67s.38-.4.56-.6.26-.35.41-.49.54-.47.81-.69.53-.46.81-.66a3.59,3.59,0,0,1,.88-.54,5.49,5.49,0,0,0,.87-.51c.44-.24.88-.46,1.32-.69l.57-.3c.6-.27,1.19-.55,1.79-.8a8.83,8.83,0,0,1,2-.59c.41-.06.81-.14,1.22-.16s.61.06.91.08.3,0,.45,0c.49.05,1,.07,1.46.15s.87.23,1.31.33c.24.06.49.08.73.13l1,.22a5.59,5.59,0,0,0,.59.11,3.4,3.4,0,0,1,1.25.36l.52.25a4.35,4.35,0,0,1,1.16.84c.34.34.71.66,1.09,1a15.12,15.12,0,0,1,1.95,2,6.3,6.3,0,0,1,.48.84,3.58,3.58,0,0,0,.25.42,10.63,10.63,0,0,1,.72,1.48c.15.33.26.68.41,1s.34.64.5,1,.21.45.31.67a7.68,7.68,0,0,1,.32.79,14.49,14.49,0,0,1,.38,1.61,6.83,6.83,0,0,1,0,1.11c0,.22,0,.43,0,.64a6.43,6.43,0,0,1,0,.76,9.29,9.29,0,0,1-.17,1.29,11.88,11.88,0,0,1-.48,1.46c-.22.56-.47,1.12-.73,1.66a2.36,2.36,0,0,1-.33.45,4.09,4.09,0,0,0-.25.46,3.85,3.85,0,0,1-.78,1.14,3.7,3.7,0,0,0-.21.33c-.23.28-.47.56-.72.83s-.73.75-1.1,1.13c-.2.21-.39.44-.61.64a3.33,3.33,0,0,1-1.1.74c-.07,0-.11.11-.18.14a2.41,2.41,0,0,1-.5.21,5.54,5.54,0,0,0-1.09.61,10.36,10.36,0,0,1-1.13.48,12.23,12.23,0,0,1-1.16.4c-.23.06-.47.06-.71.11l-.66.15-1,.24a2.09,2.09,0,0,1-.43,0c-.26,0-.51,0-.76,0-.45,0-.89.08-1.34.1a10.57,10.57,0,0,1-1.38,0,8.7,8.7,0,0,1-1.43-.32c-.41-.13-.8-.32-1.2-.48l-.66-.23c-.5-.19-1-.36-1.5-.59a8.2,8.2,0,0,1-1.3-.71,13.21,13.21,0,0,1-1.45-1.14,13.65,13.65,0,0,1-1-1.11c-.32-.38-.62-.79-.93-1.18a4.86,4.86,0,0,1-.72-1.1,2.92,2.92,0,0,0-.44-.62.72.72,0,0,1-.19-.67Z"/></g></g></svg>